<svg xmlns="http://www.w3.org/2000/svg" fill="none" viewBox="0 0 1024 1322" height="1322" width="1024">
<g clip-path="url(#clip0_1704_18968)">
<path fill="url(#paint0_linear_1704_18968)" d="M20.3729 1216.39L802.748 764.685C814.006 758.189 823.121 740.769 823.121 725.762V17.8438C823.121 2.83688 814.006 -4.0568 802.748 2.43892L20.3729 454.148C9.12732 460.644 -6.10352e-05 478.077 -6.10352e-05 493.071V1200.99C-6.10352e-05 1216 9.12732 1222.89 20.3729 1216.39Z"></path>
<path fill="white" d="M149.876 1269.52L932.251 817.819C943.497 811.323 952.624 793.89 952.624 778.883V70.9781C952.624 55.9712 943.497 49.0775 932.251 55.5732L149.876 507.27C138.618 513.765 129.504 531.198 129.504 546.205V1254.11C129.504 1269.12 138.618 1276.01 149.876 1269.52Z" opacity="0.4"></path>
<path fill="white" d="M83.4687 1269.52L865.843 817.819C877.089 811.323 886.216 793.89 886.216 778.883V70.9781C886.216 55.9712 877.089 49.0775 865.843 55.5732L83.4687 507.27C72.2103 513.765 63.0958 531.198 63.0958 546.205V1254.11C63.0958 1269.12 72.2103 1276.01 83.4687 1269.52Z" opacity="0.4"></path>
<path fill="url(#paint1_linear_1704_18968)" d="M218.531 521.711L1006.36 66.8569C1016.11 61.2213 1024.01 46.1374 1024.01 33.1331C1024.01 20.1417 1016.11 14.1723 1006.36 19.7951L218.531 474.649C208.787 480.285 200.892 495.369 200.892 508.36C200.892 521.365 208.8 527.334 218.531 521.711Z"></path>
<path fill="white" d="M996.268 55.7162C998.32 50.895 997.772 46.0461 995.045 44.8857C992.318 43.7254 988.444 46.6931 986.393 51.5142C984.341 56.3353 984.889 61.1843 987.616 62.3446C990.343 63.505 994.217 60.5373 996.268 55.7162Z"></path>
<path fill="white" d="M975.091 67.9383C977.142 63.1172 976.595 58.2682 973.868 57.1079C971.141 55.9476 967.267 58.9152 965.216 63.7364C963.164 68.5575 963.712 73.4065 966.439 74.5668C969.166 75.7271 973.04 72.7595 975.091 67.9383Z"></path>
<path fill="white" d="M953.909 80.1727C955.96 75.3516 955.413 70.5026 952.686 69.3423C949.959 68.1819 946.085 71.1496 944.034 75.9707C941.982 80.7919 942.53 85.6408 945.257 86.8012C947.984 87.9615 951.857 84.9938 953.909 80.1727Z"></path>
<path fill="white" d="M420.617 391.438L873.199 130.133C876.614 128.168 879.374 122.879 879.374 118.335C879.374 113.791 876.614 111.698 873.199 113.662L420.617 374.967C417.202 376.931 414.442 382.22 414.442 386.765C414.391 391.309 417.151 393.402 420.617 391.438Z"></path>
<path fill="white" d="M290.882 466.306L322.642 447.974C326.044 445.997 328.817 440.721 328.817 436.176C328.817 431.619 326.044 429.539 322.642 431.503L290.882 449.835C287.468 451.812 284.695 457.088 284.695 461.633C284.695 466.19 287.468 468.282 290.882 466.306Z"></path>
<path fill="white" d="M233.538 499.413L265.285 481.081C268.687 479.104 271.46 473.828 271.46 469.284C271.46 464.726 268.687 462.647 265.285 464.611L233.525 482.943C230.11 484.919 227.337 490.196 227.337 494.74C227.35 499.297 230.123 501.351 233.538 499.413Z"></path>
<path fill="url(#paint2_linear_1704_18968)" d="M221.265 1319.32L1003.64 867.628C1014.89 861.132 1024.01 843.699 1024.01 828.692V120.774C1024.01 105.78 1014.89 98.9505 1003.64 105.369L221.265 557.078C210.007 563.574 200.892 581.007 200.892 596.001V1303.92C200.892 1318.93 210.007 1325.82 221.265 1319.32Z"></path>
<path fill="url(#paint3_linear_1704_18968)" d="M746.186 698.21L968.35 569.939C979.596 563.443 988.723 546.023 988.723 531.016V188.209C988.723 173.202 979.596 166.308 968.35 172.804L746.186 301.088C734.941 307.584 725.813 325.017 725.813 340.024V682.831C725.813 697.812 734.941 704.706 746.186 698.21Z" opacity="0.65"></path>
<path fill="url(#paint4_linear_1704_18968)" d="M874.47 308.162L954.755 261.819C961.816 257.736 967.593 246.799 967.593 237.428C967.593 228.005 961.867 223.679 954.755 227.748L874.47 274.104C867.41 278.186 861.633 289.124 861.633 298.495C861.684 307.918 867.358 312.244 874.47 308.162Z"></path>
<path fill="url(#paint5_linear_1704_18968)" d="M759.781 374.377L840.066 328.034C847.127 323.951 852.903 313.014 852.903 303.643C852.903 294.22 847.178 289.894 840.066 293.976L759.781 340.319C752.72 344.401 746.943 355.339 746.943 364.71C746.995 374.133 752.72 378.459 759.781 374.377Z"></path>
<path fill="white" d="M749.373 973.851L971.537 849.58C982.782 843.084 991.91 825.663 991.91 810.657V603.85C991.91 588.843 982.782 581.949 971.537 588.445L749.373 716.729C738.127 723.225 729 740.658 729 755.665V958.471C729 973.453 738.127 980.346 749.373 973.851Z"></path>
<path fill="#E3E9FD" d="M970.176 749.591C970.176 743.551 963.637 739.775 958.406 742.795L880.236 787.924C877.808 789.326 876.312 791.917 876.312 794.72C876.312 800.761 882.851 804.536 888.083 801.516L966.253 756.387C968.681 754.985 970.176 752.395 970.176 749.591Z"></path>
<path fill="#E3E9FD" d="M970.176 780.455C970.176 776.732 966.178 774.378 962.922 776.184L761.515 887.941C759.963 888.802 759 890.437 759 892.212C759 895.935 762.999 898.29 766.254 896.483L967.662 784.726C969.214 783.865 970.176 782.23 970.176 780.455Z"></path>
<path fill="#E3E9FD" d="M970.176 809.7C970.176 805.977 966.127 803.665 962.921 805.559L894.51 845.973C893.046 846.838 892.147 848.413 892.147 850.114C892.147 853.838 896.197 856.149 899.403 854.255L967.813 813.841C969.278 812.976 970.176 811.401 970.176 809.7Z"></path>
<path fill="url(#paint6_linear_1704_18968)" d="M949.943 521.169C944.61 524.242 937.949 520.393 937.949 514.237V481.079C937.949 478.305 939.385 475.73 941.745 474.273L957.502 464.539C962.832 461.247 969.706 465.08 969.706 471.345V505.159C969.706 508.019 968.179 510.662 965.7 512.09L949.943 521.169ZM915.414 540.926C910.081 544.043 903.377 540.196 903.377 534.019V514.145C903.377 511.378 904.807 508.807 907.159 507.347L922.916 497.57C928.245 494.263 935.134 498.096 935.134 504.368V524.809C935.134 527.652 933.625 530.281 931.171 531.716L915.414 540.926ZM880.7 560.874C875.367 563.936 868.717 560.086 868.717 553.936V547.153C868.717 544.375 870.158 541.796 872.524 540.34L888.545 530.481C893.875 527.201 900.738 531.036 900.738 537.294V544.737C900.738 547.602 899.206 550.248 896.721 551.675L880.7 560.874ZM844.808 581.479C840.069 584.215 834.144 580.795 834.144 575.322C834.144 572.86 835.419 570.573 837.513 569.277L854.67 558.66C859.611 555.603 865.99 559.157 865.99 564.968C865.99 567.617 864.576 570.066 862.281 571.391L844.808 581.479ZM811.613 600.383C806.279 603.504 799.572 599.658 799.572 593.479V573.622C799.572 570.849 801.008 568.275 803.366 566.817L819.387 556.914C824.717 553.619 831.593 557.453 831.593 563.719V584.104C831.593 586.945 830.086 589.573 827.634 591.008L811.613 600.383ZM777.014 620.34C771.681 623.434 765 619.586 765 613.421V580.217C765 577.446 766.434 574.872 768.79 573.414L784.636 563.609C789.965 560.312 796.845 564.145 796.845 570.412V604.229C796.845 607.081 795.327 609.717 792.859 611.148L777.014 620.34Z"></path>
<path fill="url(#paint7_linear_1704_18968)" d="M972.212 632L929.032 657.967V718.286L979.335 686.903L961.084 669.69L972.212 632Z"></path>
<path fill="#615CF5" d="M942.239 669.17L929.032 700.702V657.967L942.239 669.17Z"></path>
<path fill="url(#paint8_linear_1704_18968)" d="M796.451 736.312L746 765.989L760.616 785.946L754.829 821.039L796.451 795.666V736.312Z"></path>
<path fill="#F68CC7" d="M788.883 757.382L796.451 736.312V773.111L788.883 757.382Z"></path>
<path fill="url(#paint9_linear_1704_18968)" d="M942.239 668.872L788.883 757.383V817.776L942.239 728.226V668.872Z"></path>
<path fill="white" d="M256.555 966.065L687.802 717.097C699.047 710.588 708.175 693.168 708.175 678.161V350.178C708.175 335.171 699.047 328.278 687.802 334.773L256.555 583.819C245.297 590.314 236.182 607.748 236.182 622.755V950.66C236.182 965.654 245.297 972.548 256.555 966.065Z"></path>
<path fill="white" d="M256.555 989.583L687.802 740.538C699.047 734.042 708.175 740.936 708.175 755.942V963.908C708.175 978.915 699.047 996.348 687.802 1002.84L256.555 1251.89C245.297 1258.39 236.182 1251.49 236.182 1236.48V1028.52C236.182 1013.56 245.297 996.079 256.555 989.583Z"></path>
<path fill="white" d="M754.284 435.965L964.252 314.741C967.179 313.059 969.541 308.528 969.541 304.625C969.541 300.774 967.179 298.938 964.252 300.633L754.284 421.856C751.357 423.538 748.995 428.07 748.995 431.972C748.995 435.862 751.357 437.659 754.284 435.965Z"></path>
<path fill="white" d="M754.284 511.256L964.252 390.033C967.179 388.338 969.541 383.806 969.541 379.917C969.541 376.065 967.179 374.23 964.252 375.911L754.284 497.135C751.357 498.829 748.995 503.348 748.995 507.251C748.995 511.153 751.357 512.938 754.284 511.256Z"></path>
<path fill="white" d="M820.448 435.413L964.227 352.381C967.153 350.699 969.516 346.167 969.516 342.278C969.516 338.426 967.153 336.578 964.227 338.272L820.448 421.292C817.521 422.986 815.159 427.505 815.159 431.408C815.159 435.31 817.521 437.095 820.448 435.413Z"></path>
<path fill="white" d="M820.448 511.771L964.227 428.739C967.153 427.057 969.516 422.526 969.516 418.636C969.516 414.785 967.153 412.936 964.227 414.631L820.448 497.65C817.521 499.345 815.159 503.863 815.159 507.766C815.159 511.669 817.521 513.453 820.448 511.771Z"></path>
<path fill="#E3E9FD" d="M684.096 410.464C684.096 401.813 674.731 396.407 667.24 400.733L555.032 465.522C551.555 467.529 549.413 471.239 549.413 475.253C549.413 483.903 558.778 489.31 566.269 484.984L678.478 420.195C681.954 418.188 684.096 414.478 684.096 410.464Z"></path>
<path fill="#E3E9FD" d="M682.775 657.09C682.775 651.077 676.266 647.32 671.059 650.326L592.832 695.488C590.406 696.889 588.911 699.478 588.911 702.279C588.911 708.319 595.451 712.092 600.679 709.068L678.874 663.852C681.288 662.456 682.775 659.879 682.775 657.09Z"></path>
<path fill="#E3E9FD" d="M682.775 688.041C682.775 684.346 678.769 682.042 675.576 683.9L451.068 814.504C449.594 815.362 448.687 816.939 448.687 818.645C448.687 822.34 452.692 824.644 455.886 822.786L680.393 692.182C681.868 691.324 682.775 689.747 682.775 688.041Z"></path>
<path fill="url(#paint10_linear_1704_18968)" d="M675.016 605.609C680.29 602.57 683.54 596.946 683.54 590.86V582.362C683.54 569.25 669.338 561.061 657.99 567.63C652.733 570.673 649.495 576.287 649.495 582.362V590.86C649.495 603.957 663.668 612.148 675.016 605.609ZM627.6 632.791C616.252 639.331 602.079 631.14 602.079 618.043V539.521C602.079 533.446 605.317 527.832 610.574 524.788C621.923 518.22 636.124 526.409 636.124 539.521V618.043C636.124 624.129 632.874 629.753 627.6 632.791ZM580.213 659.892C568.865 666.46 554.663 658.271 554.663 645.159V590.741C554.663 584.655 557.913 579.031 563.187 575.993C574.535 569.453 588.708 577.644 588.708 590.741V645.159C588.708 651.234 585.471 656.849 580.213 659.892ZM532.769 687.069C521.42 693.608 507.248 685.418 507.248 672.32V566.286C507.248 560.199 510.497 554.576 515.771 551.537C527.119 544.998 541.292 553.188 541.292 566.286V672.32C541.292 678.407 538.042 684.03 532.769 687.069ZM485.303 714.242C473.984 720.781 459.832 712.613 459.832 699.541V650.787C459.832 644.723 463.066 639.119 468.317 636.086C479.636 629.547 493.788 637.715 493.788 650.787V699.541C493.788 705.605 490.554 711.209 485.303 714.242ZM437.801 741.672C426.483 748.123 412.416 739.949 412.416 726.921V648.06C412.416 641.996 415.65 636.392 420.901 633.359C432.22 626.819 446.372 634.988 446.372 648.06V726.921C446.372 733.021 443.1 738.652 437.801 741.672ZM390.471 768.52C379.153 775.059 365 766.891 365 753.819V658C365 651.936 368.234 646.333 373.485 643.299C384.804 636.76 398.956 644.928 398.956 658V753.819C398.956 759.883 395.722 765.486 390.471 768.52Z"></path>
<path fill="url(#paint11_linear_1704_18968)" d="M343.801 795.698C332.483 802.149 318.416 793.975 318.416 780.947V702.086C318.416 696.022 321.65 690.418 326.901 687.384C338.22 680.845 352.372 689.014 352.372 702.086V780.947C352.372 787.047 349.1 792.678 343.801 795.698ZM296.471 822.546C285.153 829.085 271 820.916 271 807.844V712.026C271 705.962 274.234 700.358 279.485 697.325C290.804 690.786 304.956 698.954 304.956 712.026V807.844C304.956 813.909 301.722 819.512 296.471 822.546Z"></path>
<path fill="#E3E9FD" d="M683.176 798.591C683.176 792.551 676.637 788.775 671.406 791.795L593.236 836.924C590.808 838.326 589.312 840.917 589.312 843.72C589.312 849.761 595.851 853.536 601.083 850.516L679.253 805.387C681.681 803.985 683.176 801.395 683.176 798.591Z"></path>
<path fill="#E3E9FD" d="M683.176 829.553C683.176 825.829 679.139 823.506 675.92 825.378L451.401 955.94C449.915 956.804 449 958.395 449 960.114C449 963.838 453.037 966.161 456.257 964.289L680.775 833.727C682.262 832.863 683.176 831.273 683.176 829.553Z"></path>
<path fill="#E3E9FD" d="M683.176 858.7C683.176 854.977 679.127 852.665 675.921 854.559L607.51 894.973C606.046 895.838 605.147 897.413 605.147 899.114C605.147 902.838 609.197 905.149 612.403 903.255L680.813 862.841C682.278 861.976 683.176 860.401 683.176 858.7Z"></path>
<path fill="url(#paint12_linear_1704_18968)" d="M462.858 923.86C504.556 899.756 547.133 896.677 579.594 915.063C607.393 931.161 625.075 961.511 629.649 1000.22L572.381 1033.82L570.885 1020.89C570.885 994.5 563.144 974.883 549.596 967.053C536.049 959.224 515.464 962.391 492.856 975.85L486.786 979.545L454.237 929.138C457.052 927.203 459.955 925.531 462.858 923.86Z"></path>
<path fill="#E3E9FD" d="M386.06 1141.76C394.857 1080.97 436.643 1011.83 486.786 979.456L454.237 929.049C380.43 976.729 324.657 1077.45 324.481 1163.4V1181L386.06 1141.76Z"></path>
<path fill="#E3E9FD" d="M675.305 973.034L279 1205.45V1210.64L675.305 978.224V973.034Z"></path>
</g>
<defs>
<linearGradient gradientUnits="userSpaceOnUse" y2="1048.11" x2="411.554" y1="323.977" x1="411.554" id="paint0_linear_1704_18968">
<stop stop-color="#2575F2" offset="0.02"></stop>
<stop stop-color="#6A11C1" offset="1"></stop>
</linearGradient>
<linearGradient gradientUnits="userSpaceOnUse" y2="58.8205" x2="987.465" y1="483.828" x1="235.386" id="paint1_linear_1704_18968">
<stop stop-color="#2575F2" offset="0.02"></stop>
<stop stop-color="#6A11C1" offset="1"></stop>
</linearGradient>
<linearGradient gradientUnits="userSpaceOnUse" y2="1316.17" x2="612.446" y1="443.686" x1="612.446" id="paint2_linear_1704_18968">
<stop stop-color="#BFD1FF" offset="0.02"></stop>
<stop stop-color="white" offset="1"></stop>
</linearGradient>
<linearGradient gradientUnits="userSpaceOnUse" y2="622.622" x2="654.188" y1="755.62" x1="932.933" id="paint3_linear_1704_18968">
<stop stop-color="#9CCFF7"></stop>
<stop stop-color="#2E7FEB" offset="1"></stop>
</linearGradient>
<linearGradient gradientUnits="userSpaceOnUse" y2="265.661" x2="940.127" y1="240.067" x1="925.417" id="paint4_linear_1704_18968">
<stop stop-color="#2575F2" offset="0.02"></stop>
<stop stop-color="#6A11C1" offset="1"></stop>
</linearGradient>
<linearGradient gradientUnits="userSpaceOnUse" y2="287.84" x2="768.087" y1="367.534" x1="822.864" id="paint5_linear_1704_18968">
<stop stop-color="#F477BB" offset="0.02"></stop>
<stop stop-color="#F695CC" offset="1"></stop>
</linearGradient>
<linearGradient gradientUnits="userSpaceOnUse" y2="519.019" x2="765.176" y1="519.019" x1="1073.6" id="paint6_linear_1704_18968">
<stop stop-color="white"></stop>
</linearGradient>
<linearGradient gradientUnits="userSpaceOnUse" y2="675.996" x2="928.661" y1="673.399" x1="992.838" id="paint7_linear_1704_18968">
<stop stop-color="#3C54E2"></stop>
<stop stop-color="#F582C2" offset="1"></stop>
</linearGradient>
<linearGradient gradientUnits="userSpaceOnUse" y2="778.675" x2="746" y1="778.675" x1="796.451" id="paint8_linear_1704_18968">
<stop stop-color="#E967CD"></stop>
<stop stop-color="#E967CD" offset="1"></stop>
</linearGradient>
<linearGradient gradientUnits="userSpaceOnUse" y2="743.287" x2="788.883" y1="743.287" x1="942.239" id="paint9_linear_1704_18968">
<stop stop-color="#6571E1"></stop>
<stop stop-color="#F687C4" offset="1"></stop>
</linearGradient>
<linearGradient gradientUnits="userSpaceOnUse" y2="673.661" x2="683.54" y1="673.661" x1="271" id="paint10_linear_1704_18968">
<stop stop-color="#2E69EC"></stop>
<stop stop-color="#F585C3" offset="1"></stop>
</linearGradient>
<linearGradient gradientUnits="userSpaceOnUse" y2="700.643" x2="271" y1="700.643" x1="589.54" id="paint11_linear_1704_18968">
<stop stop-color="#5D70E3" offset="0.451042"></stop>
<stop stop-color="#D881CA" offset="1"></stop>
</linearGradient>
<linearGradient gradientUnits="userSpaceOnUse" y2="968.725" x2="454.237" y1="968.725" x1="629.649" id="paint12_linear_1704_18968">
<stop stop-color="#ED84C5"></stop>
<stop stop-color="#6371E2" offset="1"></stop>
</linearGradient>
<clipPath id="clip0_1704_18968">
<rect fill="white" height="1321.78" width="1024"></rect>
</clipPath>
</defs>
</svg>
