<?xml version="1.0" standalone="no"?><!DOCTYPE svg PUBLIC "-//W3C//DTD SVG 1.1//EN"
        "http://www.w3.org/Graphics/SVG/1.1/DTD/svg11.dtd">
<svg height="1024" node-id="1" sillyvg="true" template-height="1024" template-width="1024" version="1.1"
     viewBox="0 0 1024 1024" width="1024" xmlns="http://www.w3.org/2000/svg">
    <defs node-id="157">
        <linearGradient gradientUnits="objectBoundingBox" id="linearGradient-1" node-id="5" spreadMethod="pad"
                        x1="-0.1358235" x2="0.5" y1="0.5" y2="0.47203198">
            <stop offset="0" stop-color="#98d6fa"></stop>
            <stop offset="1" stop-color="#47b0f1"></stop>
        </linearGradient>
        <linearGradient gradientUnits="objectBoundingBox" id="linearGradient-2" node-id="8" spreadMethod="pad"
                        x1="-0.0000000000000009337728" x2="1" y1="-0.031055901" y2="-0.031055901">
            <stop offset="0" stop-color="#fff5de"></stop>
            <stop offset="1" stop-color="#fbd2ac"></stop>
        </linearGradient>
        <linearGradient gradientUnits="objectBoundingBox" id="linearGradient-3" node-id="11" spreadMethod="pad"
                        x1="-0.1358235" x2="0.5" y1="0.5" y2="0.47628444">
            <stop offset="0" stop-color="#98d6fa"></stop>
            <stop offset="1" stop-color="#47b0f1"></stop>
        </linearGradient>
        <linearGradient gradientUnits="objectBoundingBox" id="linearGradient-4" node-id="14" spreadMethod="pad"
                        x1="-0.1358235" x2="0.5" y1="0.5" y2="0.47629464">
            <stop offset="0" stop-color="#98d6fa"></stop>
            <stop offset="1" stop-color="#47b0f1"></stop>
        </linearGradient>
        <linearGradient gradientUnits="objectBoundingBox" id="linearGradient-5" node-id="17" spreadMethod="pad"
                        x1="-0.1358235" x2="0.5" y1="0.5" y2="0.47629884">
            <stop offset="0" stop-color="#98d6fa"></stop>
            <stop offset="1" stop-color="#47b0f1"></stop>
        </linearGradient>
        <linearGradient gradientUnits="objectBoundingBox" id="linearGradient-6" node-id="20" spreadMethod="pad"
                        x1="-0.13582349" x2="0.49999997" y1="0.49999997" y2="0.43423018">
            <stop offset="0" stop-color="#98d6fa"></stop>
            <stop offset="1" stop-color="#47b0f1"></stop>
        </linearGradient>
        <linearGradient gradientUnits="objectBoundingBox" id="linearGradient-7" node-id="23" spreadMethod="pad"
                        x1="0.4313989" x2="0.6033656" y1="-0.06451612" y2="0">
            <stop offset="0.031572677" stop-color="#afdef9"></stop>
            <stop offset="1" stop-color="#7cc9f9"></stop>
        </linearGradient>
        <linearGradient gradientUnits="objectBoundingBox" id="linearGradient-8" node-id="26" spreadMethod="pad"
                        x1="0.05920258" x2="0.5996637" y1="0.60857147" y2="0.3705422">
            <stop offset="0" stop-color="#98d6fa"></stop>
            <stop offset="1" stop-color="#47b0f1"></stop>
        </linearGradient>
        <linearGradient gradientUnits="objectBoundingBox" id="linearGradient-9" node-id="29" spreadMethod="pad"
                        x1="0.44492638" x2="0.58298296" y1="-0.06451613" y2="0">
            <stop offset="0.031572677" stop-color="#afdef9"></stop>
            <stop offset="1" stop-color="#7cc9f9"></stop>
        </linearGradient>
        <linearGradient gradientUnits="objectBoundingBox" id="linearGradient-10" node-id="32" spreadMethod="pad"
                        x1="0.28403884" x2="0.5" y1="0.8700849" y2="0.30481097">
            <stop offset="0" stop-color="#98d6fa"></stop>
            <stop offset="1" stop-color="#47b0f1"></stop>
        </linearGradient>
        <linearGradient gradientUnits="objectBoundingBox" id="linearGradient-11" node-id="35" spreadMethod="pad"
                        x1="0.99999994" x2="0" y1="-0.11764705" y2="-0.11764705">
            <stop offset="0" stop-color="#f5dda7"></stop>
            <stop offset="1" stop-color="#fa9a41"></stop>
        </linearGradient>
        <linearGradient gradientUnits="objectBoundingBox" id="linearGradient-12" node-id="38" spreadMethod="pad"
                        x1="0.1109336" x2="0.5" y1="0.8700849" y2="0.30481097">
            <stop offset="0" stop-color="#98d6fa"></stop>
            <stop offset="1" stop-color="#47b0f1"></stop>
        </linearGradient>
        <linearGradient gradientUnits="objectBoundingBox" id="linearGradient-13" node-id="41" spreadMethod="pad"
                        x1="0.07477601" x2="0.85324484" y1="0.17832185" y2="0.80980283">
            <stop offset="0" stop-color="#98d6fa"></stop>
            <stop offset="1" stop-color="#47b0f1"></stop>
        </linearGradient>
        <linearGradient gradientUnits="objectBoundingBox" id="linearGradient-14" node-id="44" spreadMethod="pad"
                        x1="0.13965733" x2="0.875197" y1="0.07491416" y2="1.0750235">
            <stop offset="0" stop-color="#ffb859"></stop>
            <stop offset="1" stop-color="#f97b61"></stop>
        </linearGradient>
        <linearGradient gradientUnits="objectBoundingBox" id="linearGradient-15" node-id="47" spreadMethod="pad"
                        x1="0.020751635" x2="0.5" y1="0.8700849" y2="0.30481097">
            <stop offset="0" stop-color="#98d6fa"></stop>
            <stop offset="1" stop-color="#47b0f1"></stop>
        </linearGradient>
        <linearGradient gradientUnits="objectBoundingBox" id="linearGradient-16" node-id="50" spreadMethod="pad" x1="1"
                        x2="0.0058146594" y1="-0.029698754" y2="-0.029698754">
            <stop offset="0" stop-color="#f97b61"></stop>
            <stop offset="1" stop-color="#ffb859"></stop>
        </linearGradient>
        <linearGradient gradientUnits="objectBoundingBox" id="linearGradient-17" node-id="53" spreadMethod="pad" x1="1"
                        x2="0.0058146594" y1="-0.029698754" y2="-0.029698754">
            <stop offset="0" stop-color="#f97b61"></stop>
            <stop offset="1" stop-color="#ffb859"></stop>
        </linearGradient>
        <linearGradient gradientUnits="objectBoundingBox" id="linearGradient-18" node-id="56" spreadMethod="pad" x1="0"
                        x2="0.9941853" y1="-0.029698754" y2="-0.029698754">
            <stop offset="0" stop-color="#ffb859"></stop>
            <stop offset="1" stop-color="#f97b61"></stop>
        </linearGradient>
        <linearGradient gradientUnits="objectBoundingBox" id="linearGradient-19" node-id="59" spreadMethod="pad" x1="0"
                        x2="0.9941853" y1="-0.029698754" y2="-0.029698754">
            <stop offset="0" stop-color="#ffb859"></stop>
            <stop offset="1" stop-color="#f97b61"></stop>
        </linearGradient>
        <linearGradient gradientUnits="objectBoundingBox" id="linearGradient-20" node-id="62" spreadMethod="pad"
                        x1="0.86275023" x2="-0.000000000000027057475" y1="-0.028050492" y2="-0.028050492">
            <stop offset="0" stop-color="#1d181c"></stop>
            <stop offset="0.3" stop-color="#2c2422"></stop>
            <stop offset="0.5" stop-color="#42352c"></stop>
            <stop offset="0.7" stop-color="#57352c"></stop>
            <stop offset="1" stop-color="#923629"></stop>
        </linearGradient>
        <linearGradient gradientUnits="objectBoundingBox" id="linearGradient-21" node-id="68" spreadMethod="pad"
                        x1="0.13724977" x2="1" y1="-0.028050492" y2="-0.028050492">
            <stop offset="0" stop-color="#1d181c"></stop>
            <stop offset="0.3" stop-color="#2c2422"></stop>
            <stop offset="0.5" stop-color="#42352c"></stop>
            <stop offset="0.7" stop-color="#57352c"></stop>
            <stop offset="1" stop-color="#923629"></stop>
        </linearGradient>
        <linearGradient gradientUnits="objectBoundingBox" id="linearGradient-22" node-id="74" spreadMethod="pad"
                        x1="0.8017669" x2="0.40161258" y1="0.7812446" y2="0.012035674">
            <stop offset="0" stop-color="#98d6fa"></stop>
            <stop offset="1" stop-color="#47b0f1"></stop>
        </linearGradient>
        <linearGradient gradientUnits="objectBoundingBox" id="linearGradient-23" node-id="77" spreadMethod="pad"
                        x1="0.1696366" x2="0.73110634" y1="0.776033" y2="0.27310416">
            <stop offset="0" stop-color="#98d6fa"></stop>
            <stop offset="1" stop-color="#47b0f1"></stop>
        </linearGradient>
        <linearGradient gradientUnits="objectBoundingBox" id="linearGradient-25" node-id="83" spreadMethod="pad" x1="0"
                        x2="0.84977597" y1="0.6436173" y2="0.3819483">
            <stop offset="0" stop-color="#98d6fa"></stop>
            <stop offset="1" stop-color="#47b0f1"></stop>
        </linearGradient>
        <linearGradient gradientUnits="objectBoundingBox" id="linearGradient-26" node-id="86" spreadMethod="pad" x1="0"
                        x2="0.84977597" y1="0.63935465" y2="0.38545215">
            <stop offset="0" stop-color="#98d6fa"></stop>
            <stop offset="1" stop-color="#47b0f1"></stop>
        </linearGradient>
        <linearGradient gradientUnits="objectBoundingBox" id="linearGradient-27" node-id="89" spreadMethod="pad"
                        x1="0.22355923" x2="0.5" y1="-0.089142084" y2="0.77381057">
            <stop offset="0" stop-color="#98d6fa"></stop>
            <stop offset="1" stop-color="#47b0f1"></stop>
        </linearGradient>
        <linearGradient gradientUnits="objectBoundingBox" id="linearGradient-28" node-id="92" spreadMethod="pad"
                        x1="0.4536279" x2="0.5" y1="-0.11452465" y2="0.7856074">
            <stop offset="0" stop-color="#98d6fa"></stop>
            <stop offset="1" stop-color="#47b0f1"></stop>
        </linearGradient>
        <linearGradient gradientUnits="objectBoundingBox" id="linearGradient-29" node-id="95" spreadMethod="pad"
                        x1="0.47746408" x2="0.5" y1="-0.11452465" y2="0.7856074">
            <stop offset="0" stop-color="#98d6fa"></stop>
            <stop offset="1" stop-color="#47b0f1"></stop>
        </linearGradient>
        <linearGradient gradientUnits="objectBoundingBox" id="linearGradient-30" node-id="98" spreadMethod="pad"
                        x1="0.4389308" x2="0.5" y1="-0.11452465" y2="0.7856074">
            <stop offset="0" stop-color="#98d6fa"></stop>
            <stop offset="1" stop-color="#47b0f1"></stop>
        </linearGradient>
        <linearGradient gradientUnits="objectBoundingBox" id="linearGradient-31" node-id="101" spreadMethod="pad" x1="0"
                        x2="1.1322753" y1="0.776033" y2="0.776033">
            <stop offset="0" stop-color="#98d6fa"></stop>
            <stop offset="1" stop-color="#47b0f1"></stop>
        </linearGradient>
    </defs>
    <g node-id="350">
        <path d="M 0.00 0.00 L 1024.00 0.00 L 1024.00 1024.00 L 0.00 1024.00 Z" fill="#ffffff" fill-opacity="0"
              fill-rule="evenodd" group-id="1" id="矩形" node-id="105" stroke="none" target-height="1024"
              target-width="1024" target-x="0" target-y="0"></path>
    </g>
    <g node-id="351">
        <g node-id="357">
            <path d="M 76.80 581.77 L 73.83 568.49 L 71.97 559.38 L 69.82 547.84 L 67.80 535.55 L 65.82 521.45 L 64.17 506.83 L 62.88 491.00 L 62.32 480.31 L 62.04 469.36 L 62.05 458.15 L 62.42 446.95 L 63.20 435.75 L 64.39 424.55 L 66.06 413.42 L 68.25 402.53 L 70.95 391.87 L 73.38 383.98 L 76.16 376.33 L 79.29 368.94 L 82.78 361.77 L 86.68 354.81 L 91.00 348.19 L 95.75 341.89 L 100.92 335.90 L 106.51 330.33 L 112.60 325.15 L 119.24 320.35 L 126.45 315.93 L 132.34 312.86 L 138.66 310.07 L 145.42 307.58 L 152.66 305.39 L 160.40 303.51 L 178.10 300.08 L 194.86 297.29 L 210.72 295.10 L 226.66 293.29 L 241.76 291.87 L 256.05 290.83 L 277.25 289.66 L 296.81 288.85 L 315.85 288.13 L 333.44 287.30 L 344.99 286.55 L 355.96 285.55 L 366.35 284.30 L 376.69 282.65 L 386.56 280.55 L 395.98 278.01 L 402.93 275.71 L 409.70 273.04 L 416.31 269.98 L 422.76 266.54 L 428.94 262.74 L 435.06 258.41 L 441.11 253.52 L 447.10 248.05 L 456.03 239.55 L 464.00 232.33 L 471.08 226.27 L 478.37 220.45 L 484.92 215.65 L 490.79 211.76 L 496.88 208.19 L 502.50 205.35 L 507.67 203.18 L 513.00 201.39 L 518.16 200.08 L 523.16 199.21 L 528.22 198.69 L 533.39 198.46 L 538.68 198.51 L 546.76 198.96 L 555.68 199.75 L 575.59 201.60 L 582.89 201.85 L 590.28 201.53 L 597.79 200.63 L 605.24 199.25 L 612.69 197.44 L 620.16 195.20 L 627.52 192.63 L 634.75 189.78 L 641.86 186.68 L 652.27 181.65 L 662.07 176.43 L 671.50 171.00 L 679.96 165.81 L 694.70 156.20 L 705.47 148.96 L 708.73 147.00 L 714.62 143.93 L 721.41 140.81 L 730.35 137.21 L 736.61 134.98 L 743.59 132.79 L 751.34 130.64 L 759.13 128.82 L 767.44 127.29 L 776.27 126.05 L 785.14 125.28 L 794.32 125.01 L 803.83 125.28 L 810.91 125.87 L 818.07 126.88 L 825.33 128.30 L 832.69 130.15 L 839.85 132.42 L 847.04 135.22 L 854.26 138.58 L 861.53 142.51 L 868.42 146.86 L 875.30 151.89 L 882.17 157.65 L 889.04 164.20 L 894.08 169.58 L 899.09 175.53 L 904.06 182.06 L 909.00 189.21 L 913.89 197.03 L 918.24 204.72 L 922.51 213.10 L 926.70 222.22 L 930.79 232.13 L 934.77 242.86 L 938.20 253.22 L 941.49 264.41 L 944.62 276.49 L 947.58 289.51 L 950.35 303.51 L 951.86 326.93 L 953.22 350.50 L 954.29 374.03 L 954.96 397.17 L 955.14 412.56 L 955.02 427.53 L 954.62 442.08 L 953.86 456.63 L 952.72 470.53 L 951.21 483.79 L 949.74 493.77 L 948.00 503.26 L 946.01 512.28 L 943.77 520.85 L 941.11 529.43 L 938.14 537.43 L 934.87 544.88 L 931.33 551.81 L 928.10 557.25 L 924.65 562.30 L 920.97 566.96 L 917.06 571.27 L 912.91 575.24 L 907.58 580.33 L 903.24 585.14 L 899.78 589.70 L 897.11 594.04 L 894.81 598.79 L 893.19 603.30 L 892.20 607.60 L 891.78 611.74 L 891.86 615.97 L 892.40 620.04 L 893.40 623.97 L 894.87 627.79 L 896.71 631.46 L 898.90 634.98 L 901.43 638.38 L 904.32 641.65 L 908.53 645.67 L 913.11 649.38 L 918.09 652.77 L 923.32 655.79 L 928.66 658.40 L 934.12 660.61 L 939.72 662.43 L 945.12 663.75 L 950.35 664.62 L 953.51 665.26 L 956.01 666.20 L 957.99 667.41 L 959.51 668.87 L 960.66 670.60 L 961.58 673.06 L 961.99 675.94 L 961.82 679.34 L 960.97 683.39 L 959.71 687.14 L 957.90 691.28 L 955.47 695.88 L 952.32 700.96 L 947.83 707.28 L 942.35 714.05 L 935.76 721.31 L 928.84 728.20 L 921.05 735.24 L 912.32 742.43 L 903.29 749.20 L 893.54 755.83 L 883.04 762.30 L 874.99 766.81 L 866.64 771.08 L 857.96 775.11 L 848.95 778.90 L 843.66 781.07 L 836.30 783.68 L 826.40 786.78 L 810.77 791.14 L 790.68 796.12 L 769.11 800.94 L 743.83 806.04 L 717.35 810.87 L 687.89 815.68 L 657.52 820.08 L 624.90 824.17 L 602.89 826.57 L 580.23 828.73 L 556.89 830.63 L 533.55 832.18 L 509.89 833.37 L 485.91 834.19 L 461.93 834.59 L 437.96 834.52 L 413.99 833.98 L 390.06 832.93 L 366.45 831.31 L 343.18 829.14 L 325.71 827.08 L 308.62 824.67 L 291.88 821.90 L 275.50 818.78 L 259.09 815.19 L 243.22 811.19 L 227.86 806.81 L 212.99 802.04 L 204.36 798.02 L 196.16 793.63 L 188.36 788.88 L 180.95 783.75 L 173.79 778.21 L 166.99 772.40 L 160.52 766.31 L 154.39 759.94 L 146.65 751.04 L 139.45 741.84 L 132.78 732.32 L 126.55 722.51 L 120.82 712.60 L 115.56 702.60 L 110.67 692.40 L 106.23 682.36 L 102.22 672.46 L 96.77 657.57 L 92.21 643.60 L 88.21 629.92 L 84.99 617.74 L 82.19 606.11 L 80.04 596.56 L 76.80 581.77 Z"
                  fill="#47b0f1" fill-opacity="0.05" fill-rule="nonzero" group-id="2,8" id="路径-58" node-id="107"
                  stroke="none" target-height="709.57654" target-width="899.9475" target-x="62.03775"
                  target-y="125.01145"></path>
        </g>
        <g node-id="358">
            <path d="M 158.00 329.00 L 158.00 329.15 L 159.66 329.70 L 161.07 330.55 L 162.28 331.73 L 163.21 333.13 L 163.78 334.71 L 164.00 336.50 L 164.00 337.50 L 163.73 339.51 L 162.98 341.29 L 161.80 342.80 L 160.29 343.98 L 158.51 344.73 L 156.50 345.00 L 77.50 345.00 L 75.49 344.73 L 73.71 343.98 L 72.20 342.80 L 71.02 341.29 L 70.27 339.51 L 70.00 337.50 L 70.00 336.50 L 70.27 334.49 L 71.02 332.71 L 72.20 331.20 L 73.71 330.02 L 75.49 329.27 L 77.50 329.00 L 109.00 329.00 L 110.86 328.74 L 112.47 328.09 L 113.87 327.03 L 114.97 325.66 L 115.68 324.08 L 116.00 322.24 L 116.00 322.00 L 115.74 320.14 L 115.09 318.53 L 114.03 317.13 L 112.66 316.03 L 111.08 315.32 L 109.24 315.00 L 109.00 315.00 L 106.00 315.00 L 106.00 314.85 L 104.34 314.30 L 102.93 313.45 L 101.72 312.28 L 100.79 310.87 L 100.22 309.29 L 100.00 307.50 L 100.00 306.50 L 100.27 304.49 L 101.02 302.71 L 102.20 301.20 L 103.71 300.02 L 105.49 299.27 L 107.50 299.00 L 186.50 299.00 L 188.51 299.27 L 190.29 300.02 L 191.80 301.20 L 192.98 302.71 L 193.73 304.49 L 194.00 306.50 L 194.00 307.50 L 193.73 309.51 L 192.98 311.29 L 191.80 312.80 L 190.29 313.98 L 188.51 314.73 L 186.50 315.00 L 155.00 315.00 L 153.14 315.26 L 151.53 315.91 L 150.13 316.97 L 149.03 318.34 L 148.32 319.92 L 148.00 321.76 L 148.00 322.00 L 148.26 323.86 L 148.91 325.47 L 149.97 326.87 L 151.34 327.97 L 152.92 328.68 L 154.76 329.00 L 155.00 329.00 L 158.00 329.00 Z"
                  fill="url(#linearGradient-1)" fill-opacity="0.1" fill-rule="nonzero" group-id="2,9" id="形状结合"
                  node-id="108" stroke="none" target-height="46" target-width="124" target-x="70" target-y="299"></path>
        </g>
        <g node-id="359">
            <path d="M 858.00 159.00 L 858.00 159.15 L 859.66 159.70 L 861.07 160.55 L 862.28 161.73 L 863.21 163.13 L 863.78 164.71 L 864.00 166.50 L 864.00 167.50 L 863.73 169.51 L 862.98 171.29 L 861.80 172.80 L 860.29 173.98 L 858.51 174.73 L 856.50 175.00 L 777.50 175.00 L 775.49 174.73 L 773.71 173.98 L 772.20 172.80 L 771.02 171.29 L 770.27 169.51 L 770.00 167.50 L 770.00 166.50 L 770.27 164.49 L 771.02 162.71 L 772.20 161.20 L 773.71 160.02 L 775.49 159.27 L 777.50 159.00 L 809.00 159.00 L 810.86 158.74 L 812.47 158.09 L 813.87 157.03 L 814.97 155.66 L 815.68 154.08 L 816.00 152.24 L 816.00 152.00 L 815.74 150.14 L 815.09 148.53 L 814.03 147.13 L 812.66 146.03 L 811.08 145.32 L 809.24 145.00 L 809.00 145.00 L 806.00 145.00 L 806.00 144.85 L 804.34 144.30 L 802.93 143.45 L 801.72 142.28 L 800.79 140.87 L 800.22 139.29 L 800.00 137.50 L 800.00 136.50 L 800.27 134.49 L 801.02 132.71 L 802.20 131.20 L 803.71 130.02 L 805.49 129.27 L 807.50 129.00 L 886.50 129.00 L 888.51 129.27 L 890.29 130.02 L 891.80 131.20 L 892.98 132.71 L 893.73 134.49 L 894.00 136.50 L 894.00 137.50 L 893.73 139.51 L 892.98 141.29 L 891.80 142.80 L 890.29 143.98 L 888.51 144.73 L 886.50 145.00 L 855.00 145.00 L 853.14 145.26 L 851.53 145.91 L 850.13 146.97 L 849.03 148.34 L 848.32 149.92 L 848.00 151.76 L 848.00 152.00 L 848.26 153.86 L 848.91 155.47 L 849.97 156.87 L 851.34 157.97 L 852.92 158.68 L 854.76 159.00 L 855.00 159.00 L 858.00 159.00 Z"
                  fill="url(#linearGradient-1)" fill-opacity="0.1" fill-rule="nonzero" group-id="2,10" id="形状结合"
                  node-id="109" stroke="none" target-height="46" target-width="124" target-x="770"
                  target-y="129"></path>
        </g>
        <path d="M 514.52 712.00 L 547.37 712.23 L 579.21 712.89 L 610.06 713.95 L 640.94 715.46 L 670.45 717.33 L 698.63 719.55 L 726.81 722.21 L 753.27 725.16 L 778.08 728.37 L 802.87 732.07 L 825.57 735.96 L 846.30 740.01 L 859.80 740.35 L 872.74 741.09 L 885.14 742.23 L 897.51 743.80 L 909.11 745.69 L 919.97 747.90 L 930.76 750.55 L 940.56 753.43 L 949.44 756.51 L 958.16 760.10 L 965.70 763.79 L 972.17 767.57 L 976.89 770.83 L 980.85 774.09 L 984.13 777.33 L 986.82 780.57 L 989.12 784.18 L 990.72 787.76 L 991.67 791.35 L 992.00 795.00 L 991.69 798.54 L 990.79 802.03 L 989.29 805.52 L 987.11 809.02 L 984.58 812.18 L 981.48 815.34 L 977.74 818.52 L 973.29 821.71 L 967.16 825.42 L 960.02 829.05 L 951.76 832.59 L 943.35 835.66 L 934.04 838.54 L 923.79 841.22 L 913.46 843.47 L 902.42 845.45 L 890.61 847.13 L 877.57 850.71 L 863.22 854.25 L 847.45 857.75 L 847.86 860.86 L 848.00 864.00 L 847.72 868.37 L 846.93 872.68 L 845.63 876.97 L 843.78 881.25 L 841.34 885.55 L 838.62 889.49 L 835.40 893.43 L 831.65 897.38 L 827.33 901.35 L 822.39 905.34 L 816.17 909.76 L 809.18 914.15 L 801.36 918.50 L 792.64 922.79 L 783.98 926.61 L 774.61 930.31 L 764.51 933.89 L 753.61 937.35 L 742.85 940.40 L 731.48 943.27 L 719.48 945.96 L 706.82 948.45 L 690.03 951.24 L 672.36 953.60 L 653.78 955.52 L 635.17 956.87 L 615.92 957.71 L 596.00 958.00 L 580.31 957.82 L 565.05 957.30 L 550.19 956.45 L 535.72 955.29 L 521.12 953.78 L 507.09 951.98 L 493.63 949.92 L 480.69 947.60 L 467.61 944.90 L 455.26 941.99 L 443.62 938.87 L 432.64 935.58 L 421.53 931.83 L 411.30 927.95 L 401.91 923.95 L 393.29 919.85 L 384.63 915.21 L 376.98 910.52 L 370.25 905.81 L 364.36 901.08 L 359.76 896.80 L 355.83 892.55 L 352.52 888.32 L 349.79 884.11 L 347.59 879.89 L 319.63 877.55 L 293.22 874.92 L 268.31 872.02 L 243.41 868.68 L 220.39 865.13 L 199.15 861.41 L 177.96 857.17 L 158.97 852.84 L 142.02 848.43 L 129.15 844.64 L 117.74 840.88 L 107.67 837.15 L 98.84 833.46 L 91.44 829.95 L 85.12 826.54 L 79.76 823.22 L 75.26 819.99 L 71.53 816.86 L 68.41 813.69 L 66.00 810.64 L 64.21 807.66 L 62.98 804.75 L 62.26 801.88 L 62.00 799.00 L 62.25 796.17 L 62.95 793.34 L 64.14 790.48 L 65.86 787.57 L 68.18 784.57 L 71.18 781.47 L 74.78 778.38 L 79.12 775.20 L 84.30 771.94 L 90.39 768.58 L 97.53 765.14 L 106.05 761.50 L 115.77 757.82 L 126.79 754.10 L 139.22 750.36 L 155.59 745.99 L 173.95 741.69 L 194.45 737.48 L 215.00 733.77 L 237.29 730.22 L 261.41 726.86 L 285.55 723.93 L 311.15 721.25 L 338.28 718.84 L 365.40 716.83 L 393.72 715.13 L 423.25 713.77 L 452.77 712.80 L 483.18 712.21 L 514.52 712.00 Z"
              fill="url(#linearGradient-2)" fill-rule="nonzero" group-id="2" id="形状结合" node-id="110" stroke="none"
              target-height="246" target-width="930" target-x="62" target-y="712"></path>
        <path d="M 686.61 226.65 L 686.61 226.55 L 685.01 222.93 L 683.00 219.68 L 680.58 216.79 L 677.80 214.22 L 674.75 212.00 L 671.42 210.13 L 667.89 208.62 L 664.26 207.48 L 660.49 206.70 L 656.66 206.29 L 652.90 206.27 L 649.17 206.62 L 652.02 205.05 L 655.10 203.70 L 658.44 202.57 L 661.87 201.75 L 665.32 201.25 L 668.81 201.07 L 672.29 201.26 L 675.58 201.84 L 678.72 202.80 L 681.66 204.21 L 684.28 206.07 L 686.61 208.44 L 686.61 208.53 L 688.93 206.19 L 691.55 204.33 L 694.50 202.93 L 697.65 201.97 L 700.95 201.39 L 704.43 201.20 L 707.93 201.37 L 711.38 201.86 L 714.81 202.68 L 718.15 203.79 L 721.22 205.14 L 724.04 206.71 L 720.32 206.38 L 716.56 206.43 L 712.73 206.85 L 708.97 207.63 L 705.33 208.78 L 701.81 210.29 L 698.47 212.16 L 695.42 214.37 L 692.64 216.93 L 690.22 219.81 L 688.21 223.04 L 686.61 226.64 L 686.61 226.65 Z"
              fill="url(#linearGradient-3)" fill-rule="nonzero" group-id="2,11" id="路径" node-id="112" stroke="none"
              target-height="25.575363" target-width="74.86871" target-x="649.17413" target-y="201.07417"></path>
        <path d="M 770.03 214.11 L 770.03 214.04 L 768.91 211.52 L 767.52 209.27 L 765.87 207.27 L 763.93 205.50 L 761.04 203.50 L 757.92 201.95 L 754.53 200.83 L 751.02 200.16 L 747.55 199.97 L 744.09 200.23 L 747.10 198.65 L 750.51 197.42 L 754.08 196.65 L 757.70 196.39 L 760.11 196.51 L 762.39 196.91 L 764.57 197.58 L 766.61 198.56 L 768.42 199.85 L 770.03 201.49 L 770.03 201.55 L 771.65 199.93 L 773.47 198.64 L 775.51 197.67 L 777.69 197.00 L 779.98 196.60 L 782.39 196.47 L 786.01 196.74 L 789.58 197.50 L 792.98 198.72 L 795.98 200.29 L 792.52 200.05 L 789.05 200.26 L 785.54 200.93 L 782.15 202.06 L 779.03 203.61 L 776.14 205.60 L 773.62 208.01 L 771.59 210.83 L 770.03 214.11 L 770.03 214.11 Z"
              fill="url(#linearGradient-4)" fill-rule="nonzero" group-id="2,11" id="路径" node-id="113" stroke="none"
              target-height="17.723465" target-width="51.89435" target-x="744.0873" target-y="196.38516"></path>
        <path d="M 735.24 179.63 L 735.24 179.57 L 734.12 177.04 L 732.73 174.80 L 731.07 172.79 L 729.14 171.02 L 726.25 169.02 L 723.13 167.47 L 719.74 166.35 L 716.23 165.68 L 712.76 165.49 L 709.29 165.75 L 712.31 164.17 L 715.72 162.95 L 719.29 162.18 L 722.91 161.91 L 725.32 162.03 L 727.60 162.43 L 729.78 163.10 L 731.81 164.08 L 733.63 165.37 L 735.24 167.01 L 735.24 167.07 L 736.86 165.45 L 738.67 164.16 L 740.72 163.19 L 742.90 162.53 L 745.18 162.13 L 747.60 161.99 L 751.22 162.26 L 754.79 163.02 L 758.19 164.24 L 761.19 165.82 L 757.73 165.57 L 754.26 165.78 L 750.75 166.45 L 747.36 167.58 L 744.23 169.13 L 741.35 171.12 L 738.83 173.53 L 736.80 176.35 L 735.24 179.63 L 735.24 179.63 Z"
              fill="url(#linearGradient-4)" fill-rule="nonzero" group-id="2,11" id="路径" node-id="114" stroke="none"
              target-height="17.723465" target-width="51.89435" target-x="709.2949" target-y="161.90717"></path>
        <path d="M 840.72 220.07 L 840.72 220.03 L 839.64 217.74 L 838.24 215.78 L 836.49 214.10 L 834.49 212.72 L 832.33 211.64 L 829.98 210.86 L 827.54 210.40 L 825.13 210.27 L 822.74 210.45 L 825.58 209.05 L 828.83 208.11 L 831.09 207.81 L 833.28 207.83 L 835.42 208.14 L 837.44 208.81 L 839.19 209.87 L 840.72 211.32 L 840.72 211.36 L 842.25 209.92 L 844.01 208.88 L 846.04 208.21 L 848.18 207.89 L 850.37 207.87 L 852.64 208.17 L 855.89 209.09 L 858.71 210.49 L 856.31 210.32 L 853.91 210.47 L 851.47 210.93 L 849.12 211.71 L 846.95 212.79 L 844.95 214.17 L 843.21 215.84 L 841.80 217.80 L 840.72 220.07 Z"
              fill="url(#linearGradient-5)" fill-rule="nonzero" group-id="2,11" id="路径" node-id="115" stroke="none"
              target-height="12.253891" target-width="35.97455" target-x="822.7358" target-y="207.81491"></path>
        <path d="M 124.17 356.40 L 116.31 353.15 L 109.62 350.96 L 103.98 349.65 L 99.22 349.06 L 95.22 349.09 L 91.85 349.63 L 89.01 350.62 L 86.61 352.02 L 84.57 353.84 L 82.87 356.12 L 81.49 358.95 L 80.46 362.41 L 79.83 366.65 L 79.69 371.81 L 80.13 378.04 L 81.38 382.83 L 82.85 386.65 L 84.50 389.65 L 86.30 391.97 L 88.25 393.71 L 90.37 394.95 L 96.36 402.62 L 101.07 409.37 L 104.66 415.30 L 107.29 420.50 L 109.10 425.06 L 110.22 429.05 L 110.74 432.57 L 111.38 436.82 L 112.65 441.06 L 113.86 443.77 L 115.39 446.32 L 117.25 448.71 L 119.40 450.83 L 121.92 452.66 L 124.86 454.21 L 127.99 455.32 L 131.61 456.02 L 135.81 456.27 L 140.00 456.00 L 144.83 455.14 L 150.40 453.58 L 154.89 452.39 L 158.96 451.89 L 162.70 452.01 L 166.17 452.70 L 169.42 453.96 L 172.51 455.81 L 175.46 458.30 L 178.29 461.52 L 181.01 465.58 L 183.59 470.62 L 186.01 476.79 L 188.24 484.26 L 192.58 489.52 L 197.33 494.33 L 202.49 498.70 L 208.10 502.66 L 214.17 506.21 L 220.76 509.34 L 227.88 512.05 L 235.60 514.33 L 243.97 516.14 L 253.02 517.47 L 262.83 518.28 L 273.45 518.53 L 284.94 518.17 L 297.37 517.15 L 306.45 515.90 L 313.77 514.35 L 319.57 512.57 L 324.09 510.61 L 327.56 508.53 L 330.15 506.35 L 332.01 504.07 L 333.25 501.66 L 333.92 499.07 L 334.04 496.24 L 333.54 493.09 L 332.33 489.53 L 330.26 485.46 L 327.15 480.79 L 322.78 475.44 L 316.90 469.30 L 309.25 462.28 L 299.54 454.27 L 287.44 445.15 L 274.81 440.39 L 264.77 437.02 L 256.92 434.79 L 250.90 433.48 L 248.55 432.82 L 246.46 431.73 L 244.61 430.18 L 242.95 428.13 L 241.50 425.46 L 240.27 422.07 L 239.32 417.80 L 238.72 412.49 L 238.54 405.97 L 238.30 402.74 L 237.56 399.75 L 236.34 396.95 L 234.60 394.29 L 232.30 391.76 L 229.36 389.34 L 225.68 387.04 L 221.15 384.87 L 215.62 382.86 L 210.07 380.80 L 205.70 378.61 L 202.32 376.31 L 199.77 373.92 L 197.92 371.44 L 196.69 368.83 L 196.02 366.05 L 195.92 363.03 L 196.42 359.72 L 193.31 355.61 L 190.24 352.42 L 187.22 350.03 L 184.21 348.32 L 181.18 347.22 L 178.10 346.69 L 174.92 346.72 L 171.58 347.32 L 168.02 348.56 L 164.21 350.52 L 160.08 353.31 L 155.35 356.59 L 151.00 359.01 L 146.97 360.69 L 143.23 361.71 L 139.73 362.15 L 136.41 362.06 L 133.24 361.45 L 130.16 360.33 L 127.15 358.67 L 124.17 356.40 Z"
              fill="url(#linearGradient-6)" fill-rule="nonzero" group-id="2,12,20" id="路径-61" node-id="117"
              stroke="none" target-height="171.83588" target-width="254.35233" target-x="79.68537"
              target-y="346.69415"></path>
        <path d="M 122.64 371.51 L 170.91 403.73 L 168.81 393.79 L 166.63 385.35 L 164.38 378.25 L 162.09 372.33 L 161.09 369.81 L 161.12 369.73 L 162.59 372.66 L 165.51 379.39 L 168.87 388.18 L 170.42 392.86 L 171.67 397.31 L 172.56 401.63 L 172.89 405.05 L 213.13 431.91 L 213.02 431.75 L 213.55 420.36 L 213.57 411.42 L 213.20 404.53 L 212.54 399.35 L 211.68 395.55 L 212.40 397.00 L 213.28 400.05 L 214.00 403.56 L 214.70 408.00 L 215.71 417.49 L 216.00 422.32 L 216.10 426.65 L 215.98 430.71 L 215.64 433.59 L 252.66 458.29 L 252.32 457.88 L 252.59 455.54 L 253.06 449.84 L 253.22 442.80 L 253.00 439.30 L 252.54 436.41 L 253.07 437.51 L 253.67 440.01 L 254.50 446.44 L 254.92 453.69 L 254.84 459.75 L 285.39 480.14 L 281.52 484.01 L 249.98 461.68 L 247.03 463.20 L 243.95 464.44 L 240.75 465.40 L 235.90 466.41 L 231.44 466.93 L 227.21 467.09 L 224.12 466.94 L 230.72 466.08 L 236.15 464.88 L 240.59 463.39 L 244.16 461.67 L 247.02 459.75 L 248.31 460.68 L 249.52 461.35 L 160.70 398.45 L 161.26 399.14 L 154.51 399.87 L 148.13 400.12 L 142.10 399.91 L 136.39 399.27 L 130.97 398.21 L 125.82 396.76 L 126.13 396.55 L 126.97 396.48 L 128.76 396.74 L 135.80 398.00 L 140.42 398.54 L 146.13 398.75 L 150.03 398.60 L 154.29 398.10 L 158.93 397.21 L 122.64 371.51 Z M 163.97 448.36 L 167.97 448.19 L 172.46 447.40 L 177.51 445.89 L 183.21 443.55 L 189.65 440.24 L 196.93 435.82 L 205.14 430.09 L 207.36 432.31 L 201.86 436.32 L 196.51 439.68 L 191.29 442.42 L 185.88 444.77 L 180.87 446.51 L 176.24 447.69 L 171.50 448.43 L 167.44 448.63 L 163.97 448.36 Z"
              fill="url(#linearGradient-7)" fill-rule="nonzero" group-id="2,12,21" id="形状结合" node-id="118"
              stroke="none" target-height="114.27646" target-width="162.75137" target-x="122.63862"
              target-y="369.73346"></path>
        <path d="M 159.57 287.28 L 152.12 282.51 L 145.77 279.03 L 140.37 276.62 L 135.80 275.11 L 131.93 274.33 L 128.65 274.17 L 125.86 274.51 L 123.45 275.31 L 121.37 276.55 L 119.55 278.24 L 117.96 280.45 L 116.63 283.29 L 115.57 286.88 L 114.85 291.37 L 114.56 296.95 L 114.79 303.79 L 117.76 315.24 L 120.12 325.00 L 122.02 334.32 L 123.15 342.44 L 123.51 347.75 L 123.45 352.78 L 123.01 357.56 L 122.72 360.49 L 122.68 363.80 L 122.93 367.54 L 123.48 371.23 L 124.40 375.11 L 125.71 379.21 L 127.38 383.18 L 129.52 387.16 L 132.18 391.19 L 135.22 394.94 L 138.87 398.57 L 143.19 402.09 L 146.61 404.41 L 150.45 406.59 L 154.76 408.63 L 159.57 410.51 L 165.67 412.89 L 170.51 415.31 L 174.28 417.72 L 177.14 420.14 L 179.24 422.55 L 180.71 424.98 L 181.60 427.45 L 181.98 430.01 L 181.84 432.72 L 181.13 435.63 L 179.79 438.80 L 177.69 442.30 L 177.18 445.73 L 177.24 448.99 L 177.83 452.13 L 178.96 455.18 L 180.68 458.19 L 183.05 461.20 L 186.17 464.21 L 190.16 467.24 L 195.15 470.27 L 201.31 473.31 L 208.79 476.33 L 217.79 479.31 L 228.50 482.22 L 241.14 485.02 L 255.91 487.68 L 268.13 489.43 L 278.17 490.47 L 286.32 490.92 L 292.64 490.93 L 297.87 490.64 L 302.15 490.10 L 305.60 489.36 L 309.17 488.18 L 311.93 486.84 L 314.03 485.35 L 315.59 483.73 L 316.82 481.79 L 317.65 479.68 L 318.08 477.36 L 318.10 474.78 L 317.61 471.36 L 316.59 467.54 L 314.95 463.26 L 311.91 456.93 L 307.97 449.93 L 298.97 435.52 L 293.45 429.62 L 289.47 424.63 L 287.17 421.24 L 285.38 418.13 L 284.02 415.26 L 282.47 410.83 L 281.56 406.58 L 281.10 402.28 L 280.98 397.80 L 281.18 394.69 L 281.68 391.18 L 282.75 383.81 L 282.93 380.01 L 282.61 376.23 L 282.05 373.77 L 281.08 371.36 L 279.69 368.97 L 277.95 366.82 L 275.56 364.69 L 272.42 362.57 L 269.04 360.84 L 264.70 359.16 L 259.22 357.56 L 255.70 356.49 L 252.51 354.97 L 249.61 353.00 L 246.97 350.54 L 244.56 347.55 L 242.40 343.96 L 240.49 339.68 L 238.87 334.61 L 237.57 328.66 L 236.65 321.69 L 236.16 313.59 L 235.36 310.57 L 234.13 308.02 L 232.48 305.88 L 230.39 304.08 L 227.78 302.61 L 224.55 301.49 L 220.58 300.77 L 215.73 300.53 L 209.84 300.86 L 202.72 301.90 L 194.19 303.79 L 190.64 304.23 L 187.08 304.17 L 183.50 303.61 L 179.84 302.52 L 176.09 300.87 L 172.21 298.61 L 168.18 295.64 L 163.97 291.90 L 159.57 287.28 Z"
              fill="url(#linearGradient-8)" fill-rule="nonzero" group-id="2,12" id="路径-65" node-id="119" stroke="none"
              target-height="216.76538" target-width="203.54156" target-x="114.5583" target-y="274.1681"></path>
        <path d="M 144.94 304.74 L 180.38 349.80 L 180.45 349.63 L 182.15 344.88 L 183.30 340.18 L 183.94 335.50 L 184.07 330.82 L 183.69 326.11 L 182.80 321.35 L 182.72 321.04 L 182.73 321.08 L 184.67 326.87 L 185.51 330.05 L 186.08 333.65 L 186.20 337.44 L 185.67 341.87 L 184.96 344.84 L 183.80 348.21 L 182.12 352.01 L 212.15 390.19 L 212.34 389.92 L 214.95 385.70 L 217.13 381.02 L 218.89 375.81 L 220.20 370.03 L 221.02 363.61 L 221.30 356.46 L 221.71 358.46 L 221.97 362.22 L 221.91 366.42 L 221.45 371.61 L 220.55 376.95 L 219.07 382.49 L 217.74 386.11 L 216.10 389.52 L 214.14 392.73 L 240.75 426.55 L 243.02 422.51 L 244.29 419.67 L 245.48 416.17 L 246.31 412.45 L 246.63 408.40 L 246.98 411.31 L 247.09 414.61 L 246.84 418.01 L 246.10 421.66 L 245.31 424.05 L 244.20 426.52 L 242.74 429.08 L 282.00 479.00 L 275.77 479.00 L 237.82 428.45 L 233.16 430.26 L 229.08 431.56 L 225.50 432.43 L 220.20 433.24 L 215.94 433.38 L 211.97 433.05 L 208.86 432.43 L 206.06 431.55 L 204.01 430.70 L 208.18 431.48 L 212.43 431.78 L 216.77 431.61 L 221.25 430.94 L 225.88 429.76 L 230.70 428.01 L 235.73 425.66 L 206.86 387.22 L 207.36 388.13 L 200.09 390.39 L 193.00 392.07 L 185.94 393.23 L 179.43 393.82 L 173.13 393.88 L 167.74 393.41 L 164.27 392.76 L 161.39 391.90 L 159.00 390.87 L 162.28 391.85 L 166.10 392.49 L 170.56 392.73 L 175.76 392.51 L 181.78 391.76 L 188.75 390.37 L 196.77 388.26 L 205.98 385.31 L 205.55 385.46 L 173.38 342.62 L 173.56 343.14 L 168.17 343.21 L 163.20 342.74 L 158.59 341.78 L 154.31 340.34 L 150.30 338.43 L 146.55 336.02 L 143.03 333.11 L 139.72 329.65 L 140.21 329.61 L 141.49 330.38 L 145.34 333.19 L 148.00 334.89 L 151.52 336.75 L 155.43 338.33 L 160.28 339.67 L 163.67 340.26 L 167.51 340.58 L 171.86 340.61 L 144.94 304.74 Z"
              fill="url(#linearGradient-9)" fill-rule="nonzero" group-id="2,12,22" id="形状结合" node-id="120"
              stroke="none" target-height="174.25714" target-width="142.27756" target-x="139.7244"
              target-y="304.7429"></path>
        <path d="M 269.20 288.75 L 272.76 284.29 L 275.99 281.10 L 278.92 278.96 L 281.62 277.66 L 284.16 277.07 L 286.59 277.08 L 289.00 277.70 L 291.46 278.99 L 294.02 281.05 L 296.71 284.09 L 299.55 288.32 L 302.55 294.01 L 303.68 299.31 L 304.29 304.01 L 305.21 312.61 L 305.70 315.21 L 306.44 317.65 L 307.45 319.95 L 308.77 322.06 L 310.63 324.14 L 313.12 326.20 L 315.87 327.92 L 319.56 329.70 L 324.37 331.51 L 328.45 333.12 L 331.68 334.90 L 334.19 336.83 L 336.10 338.90 L 337.48 341.13 L 338.38 343.55 L 338.82 346.22 L 338.75 349.19 L 338.13 352.54 L 336.85 356.35 L 334.79 360.69 L 331.81 365.66 L 330.43 369.47 L 329.82 372.72 L 329.83 375.50 L 330.38 377.91 L 331.45 380.06 L 333.07 381.98 L 335.34 383.72 L 338.38 385.26 L 342.39 386.57 L 345.08 387.52 L 347.09 388.76 L 348.58 390.27 L 349.60 392.08 L 350.18 394.27 L 350.28 396.94 L 349.77 400.24 L 348.52 404.30 L 346.32 409.29 L 342.94 415.39 L 338.12 422.79 L 335.93 428.48 L 334.73 433.10 L 334.31 436.84 L 334.52 439.86 L 335.25 442.32 L 336.44 444.33 L 338.12 445.99 L 340.46 447.98 L 343.22 450.93 L 344.92 453.15 L 346.55 455.79 L 348.11 458.91 L 349.33 462.15 L 350.26 465.88 L 350.87 470.15 L 351.00 474.45 L 350.60 479.34 L 349.59 484.90 L 348.06 490.31 L 345.71 496.44 L 342.39 503.38 L 340.25 506.95 L 338.03 509.95 L 335.73 512.44 L 333.35 514.47 L 329.79 516.76 L 326.15 518.39 L 322.38 519.40 L 318.48 519.88 L 314.54 519.88 L 310.53 519.40 L 306.57 518.52 L 302.69 517.29 L 298.86 515.72 L 293.40 512.87 L 288.44 509.59 L 283.95 505.93 L 280.32 502.27 L 278.21 499.63 L 276.65 497.21 L 275.56 494.98 L 274.55 491.71 L 273.94 488.32 L 273.73 484.79 L 273.96 479.43 L 274.65 473.97 L 276.48 463.35 L 277.18 458.26 L 277.40 453.74 L 277.18 450.83 L 276.56 448.26 L 275.56 445.99 L 274.30 444.32 L 272.54 442.64 L 270.18 440.95 L 266.34 438.62 L 261.83 436.10 L 257.25 433.44 L 252.68 430.43 L 249.81 428.18 L 247.21 425.69 L 244.89 422.94 L 242.98 419.92 L 241.55 416.51 L 240.61 412.62 L 240.33 409.69 L 240.44 406.40 L 240.98 402.68 L 242.01 398.47 L 244.60 394.63 L 247.14 391.33 L 249.63 388.15 L 251.78 385.12 L 253.01 383.02 L 253.98 380.81 L 254.68 378.45 L 255.05 376.03 L 255.03 373.23 L 254.58 369.97 L 253.76 366.79 L 252.34 362.94 L 250.22 358.31 L 247.38 352.97 L 245.21 349.25 L 241.88 343.77 L 240.88 341.72 L 240.47 340.09 L 240.55 338.44 L 241.23 336.43 L 242.38 334.25 L 244.39 331.03 L 250.22 322.12 L 253.51 318.32 L 257.04 313.31 L 260.83 306.88 L 264.88 298.79 L 269.20 288.75 Z"
              fill="url(#linearGradient-10)" fill-rule="nonzero" group-id="2,12" id="路径-96" node-id="121"
              stroke="none" target-height="242.81262" target-width="110.66676" target-x="240.33482"
              target-y="277.06622"></path>
        <path d="M 286.11 318.51 L 297.46 375.42 L 303.00 366.91 L 307.42 359.40 L 310.85 352.79 L 313.42 346.99 L 314.50 344.50 L 314.57 344.46 L 313.54 347.58 L 310.85 354.40 L 307.01 362.99 L 304.79 367.39 L 302.53 371.42 L 300.11 375.11 L 297.92 377.76 L 307.38 425.21 L 307.42 425.02 L 315.84 417.34 L 322.18 411.03 L 326.79 405.90 L 329.99 401.76 L 332.07 398.47 L 331.54 400.00 L 330.01 402.78 L 328.04 405.77 L 325.40 409.40 L 319.40 416.83 L 316.20 420.45 L 313.20 423.59 L 310.24 426.37 L 307.97 428.17 L 316.68 471.81 L 316.73 471.28 L 318.58 469.82 L 322.94 466.12 L 328.03 461.25 L 330.35 458.62 L 332.07 456.25 L 331.66 457.41 L 330.32 459.60 L 326.36 464.74 L 321.53 470.16 L 317.19 474.39 L 324.37 510.40 L 318.90 510.40 L 312.39 472.31 L 309.23 471.30 L 306.18 470.00 L 303.23 468.41 L 299.08 465.70 L 295.57 462.92 L 292.47 460.04 L 290.38 457.75 L 295.65 461.81 L 300.35 464.80 L 304.53 466.88 L 308.28 468.20 L 311.66 468.86 L 311.92 470.42 L 312.29 471.75 L 293.96 364.47 L 293.87 365.35 L 288.58 361.10 L 283.90 356.76 L 279.79 352.35 L 276.20 347.86 L 273.12 343.29 L 270.50 338.61 L 270.87 338.69 L 271.50 339.23 L 272.59 340.68 L 276.68 346.55 L 279.57 350.20 L 283.45 354.38 L 286.32 357.04 L 289.68 359.69 L 293.60 362.34 L 286.11 318.51 Z M 260.99 402.08 L 263.94 404.79 L 267.67 407.40 L 272.31 409.90 L 277.99 412.28 L 284.89 414.50 L 293.17 416.51 L 303.02 418.27 L 303.02 421.41 L 296.29 420.36 L 290.14 418.94 L 284.51 417.20 L 279.01 415.03 L 274.25 412.72 L 270.14 410.27 L 266.26 407.45 L 263.25 404.72 L 260.99 402.08 Z"
              fill="url(#linearGradient-7)" fill-rule="nonzero" group-id="2,12" id="形状结合" node-id="122"
              stroke="none" target-height="191.89795" target-width="71.080505" target-x="260.98682"
              target-y="318.5067"></path>
    </g>
    <g node-id="352">
        <path d="M 413.08 808.50 L 419.26 810.66 L 422.99 812.38 L 425.12 813.71 L 426.36 814.80 L 426.98 815.72 L 427.26 816.74 L 427.14 817.69 L 426.62 818.64 L 425.36 819.93 L 423.47 821.29 L 419.10 823.79 L 415.82 825.85 L 413.63 827.67 L 412.28 829.28 L 411.33 831.11 L 410.96 832.81 L 411.09 834.45 L 411.63 836.05 L 412.51 837.68 L 413.77 839.34 L 415.97 841.67 L 418.52 844.00 L 420.44 845.37 L 423.73 847.11 L 428.91 849.30 L 434.15 851.16 L 440.68 853.14 L 448.70 855.25 L 456.76 857.06 L 465.90 858.78 L 476.23 860.38 L 486.56 861.64 L 497.75 862.59 L 509.83 863.23 L 521.89 863.43 L 534.55 863.14 L 547.83 862.33 L 557.71 861.37 L 567.79 860.04 L 578.07 858.33 L 588.57 856.22 L 598.44 853.83 L 606.92 851.42 L 614.15 849.02 L 620.27 846.64 L 626.58 843.75 L 631.78 840.95 L 635.99 838.24 L 639.35 835.63 L 642.59 832.53 L 645.06 829.58 L 646.85 826.76 L 648.06 824.04 L 648.88 821.08 L 649.23 818.22 L 649.16 815.44 L 648.65 812.71 L 647.44 809.16 L 645.69 805.77 L 643.38 802.49 L 640.69 799.48 L 637.73 796.73 L 634.48 794.23 L 629.83 791.39 L 622.17 787.63 L 613.43 783.99 L 602.10 779.91 L 589.87 776.13 L 575.48 772.33 L 565.59 770.10 L 554.96 768.03 L 543.53 766.15 L 532.08 764.63 L 520.07 763.45 L 507.48 762.62 L 494.88 762.25 L 481.90 762.37 L 468.54 763.00 L 456.52 763.98 L 446.21 765.09 L 437.43 766.30 L 428.68 767.80 L 421.47 769.31 L 415.60 770.82 L 409.79 772.63 L 405.35 774.33 L 402.05 775.91 L 398.90 777.83 L 396.90 779.49 L 395.75 780.93 L 394.16 783.63 L 392.98 786.17 L 392.16 788.59 L 391.75 791.05 L 391.90 793.42 L 392.60 795.74 L 393.83 797.85 L 395.87 800.05 L 398.95 802.39 L 402.32 804.30 L 406.94 806.34 L 413.08 808.50 Z"
              fill="url(#linearGradient-11)" fill-opacity="0.4" fill-rule="nonzero" group-id="3" id="路径" node-id="123"
              stroke="none" target-height="101.18292" target-width="257.48047" target-x="391.75354"
              target-y="762.2454"></path>
    </g>
    <g node-id="353">
        <path d="M 240.09 794.29 L 240.09 728.78 L 261.86 728.78 L 261.86 695.00 L 240.09 695.00 L 240.09 532.60 L 204.24 532.60 L 204.24 695.00 L 154.17 695.00 L 151.17 694.80 L 148.58 694.23 L 146.34 693.32 L 144.39 692.08 L 142.14 689.84 L 140.61 687.52 L 139.72 685.09 L 139.42 682.48 L 139.58 680.07 L 140.28 674.42 L 140.28 674.42 L 161.89 532.60 L 126.39 532.60 L 102.38 686.60 L 101.99 690.03 L 101.86 693.46 L 102.07 698.11 L 102.65 702.20 L 103.57 705.82 L 104.80 709.00 L 106.32 711.81 L 109.29 715.98 L 112.42 719.47 L 115.71 722.34 L 119.17 724.66 L 122.83 726.45 L 126.71 727.73 L 130.85 728.51 L 135.31 728.78 L 135.31 728.78 L 204.24 728.78 L 204.24 794.29 L 240.09 794.29 Z"
              fill="url(#linearGradient-12)" fill-rule="nonzero" group-id="4" id="4" node-id="125" stroke="none"
              target-height="261.69348" target-width="160" target-x="101.864685" target-y="532.5984"></path>
        <path d="M 511.86 293.60 L 523.28 293.88 L 534.47 294.65 L 545.47 295.93 L 556.27 297.69 L 566.89 299.94 L 577.47 302.68 L 587.80 305.86 L 597.89 309.47 L 607.76 313.52 L 617.41 317.99 L 626.88 322.91 L 636.07 328.20 L 644.97 333.86 L 653.60 339.90 L 661.97 346.32 L 670.06 353.11 L 677.82 360.22 L 685.24 367.65 L 692.35 375.40 L 699.14 383.49 L 705.56 391.86 L 711.61 400.49 L 717.27 409.40 L 722.55 418.58 L 727.47 428.05 L 731.95 437.70 L 735.99 447.57 L 739.60 457.66 L 742.78 467.99 L 745.53 478.57 L 747.77 489.19 L 749.54 500.00 L 750.81 510.99 L 751.59 522.19 L 751.86 533.60 L 751.59 545.01 L 750.81 556.21 L 749.54 567.20 L 747.77 578.00 L 745.53 588.63 L 742.78 599.21 L 739.60 609.53 L 735.99 619.63 L 731.95 629.49 L 727.47 639.14 L 722.55 648.62 L 717.27 657.80 L 711.61 666.70 L 705.56 675.34 L 699.14 683.71 L 692.35 691.80 L 685.24 699.55 L 677.82 706.98 L 670.06 714.08 L 661.97 720.87 L 653.60 727.30 L 644.97 733.34 L 636.07 739.00 L 626.88 744.29 L 617.41 749.20 L 607.76 753.68 L 597.89 757.72 L 587.80 761.33 L 577.47 764.51 L 566.89 767.26 L 556.27 769.51 L 545.47 771.27 L 534.47 772.54 L 523.28 773.32 L 511.86 773.60 L 500.45 773.32 L 489.26 772.54 L 478.26 771.27 L 467.46 769.51 L 456.83 767.26 L 446.26 764.51 L 435.93 761.33 L 425.84 757.72 L 415.97 753.68 L 406.32 749.20 L 396.85 744.29 L 387.66 739.00 L 378.76 733.34 L 370.13 727.30 L 361.76 720.87 L 353.67 714.08 L 345.91 706.98 L 338.49 699.55 L 331.38 691.80 L 324.59 683.71 L 318.16 675.34 L 312.12 666.70 L 306.46 657.80 L 301.17 648.62 L 296.26 639.14 L 291.78 629.49 L 287.74 619.63 L 284.13 609.53 L 280.95 599.21 L 278.20 588.63 L 275.95 578.00 L 274.19 567.20 L 272.92 556.21 L 272.14 545.01 L 271.86 533.60 L 272.14 522.19 L 272.92 510.99 L 274.19 500.00 L 275.95 489.19 L 278.20 478.57 L 280.95 467.99 L 284.13 457.66 L 287.74 447.57 L 291.78 437.70 L 296.26 428.05 L 301.17 418.58 L 306.46 409.40 L 312.12 400.49 L 318.16 391.86 L 324.59 383.49 L 331.38 375.40 L 338.49 367.65 L 345.91 360.22 L 353.67 353.11 L 361.76 346.32 L 370.13 339.90 L 378.76 333.86 L 387.66 328.20 L 396.85 322.91 L 406.32 317.99 L 415.97 313.52 L 425.84 309.47 L 435.93 305.86 L 446.26 302.68 L 456.83 299.94 L 467.46 297.69 L 478.26 295.93 L 489.26 294.65 L 500.45 293.88 L 511.86 293.60 Z M 511.86 373.60 L 502.98 373.85 L 494.30 374.56 L 485.81 375.70 L 477.49 377.29 L 469.33 379.31 L 461.24 381.78 L 453.38 384.63 L 445.75 387.85 L 438.33 391.46 L 431.11 395.44 L 424.09 399.81 L 417.35 404.49 L 410.88 409.48 L 404.68 414.81 L 398.73 420.46 L 393.07 426.41 L 387.75 432.61 L 382.75 439.08 L 378.07 445.82 L 373.71 452.84 L 369.72 460.06 L 366.12 467.48 L 362.89 475.11 L 360.05 482.97 L 357.58 491.06 L 355.56 499.22 L 353.97 507.54 L 352.82 516.04 L 352.12 524.72 L 351.86 533.60 L 352.12 542.48 L 352.82 551.16 L 353.97 559.65 L 355.56 567.97 L 357.58 576.13 L 360.05 584.23 L 362.89 592.08 L 366.12 599.72 L 369.72 607.14 L 373.71 614.35 L 378.07 621.37 L 382.75 628.11 L 387.75 634.58 L 393.07 640.79 L 398.73 646.74 L 404.68 652.39 L 410.88 657.71 L 417.35 662.71 L 424.09 667.39 L 431.11 671.75 L 438.33 675.74 L 445.75 679.34 L 453.38 682.57 L 461.24 685.41 L 469.33 687.88 L 477.49 689.91 L 485.81 691.49 L 494.30 692.64 L 502.98 693.34 L 511.86 693.60 L 520.75 693.34 L 529.43 692.64 L 537.92 691.49 L 546.24 689.91 L 554.40 687.88 L 562.49 685.41 L 570.35 682.57 L 577.98 679.34 L 585.40 675.74 L 592.62 671.75 L 599.64 667.39 L 606.38 662.71 L 612.85 657.71 L 619.05 652.39 L 625.00 646.74 L 630.66 640.79 L 635.98 634.58 L 640.98 628.11 L 645.66 621.37 L 650.02 614.35 L 654.01 607.14 L 657.61 599.72 L 660.83 592.08 L 663.68 584.23 L 666.15 576.13 L 668.17 567.97 L 669.76 559.65 L 670.91 551.16 L 671.61 542.48 L 671.86 533.60 L 671.61 524.72 L 670.91 516.04 L 669.76 507.54 L 668.17 499.22 L 666.15 491.06 L 663.68 482.97 L 660.83 475.11 L 657.61 467.48 L 654.01 460.06 L 650.02 452.84 L 645.66 445.82 L 640.98 439.08 L 635.98 432.61 L 630.66 426.41 L 625.00 420.46 L 619.05 414.81 L 612.85 409.48 L 606.38 404.49 L 599.64 399.81 L 592.62 395.44 L 585.40 391.46 L 577.98 387.85 L 570.35 384.63 L 562.49 381.78 L 554.40 379.31 L 546.24 377.29 L 537.92 375.70 L 529.43 374.56 L 520.75 373.85 L 511.86 373.60 Z"
              fill="url(#linearGradient-13)" fill-rule="nonzero" group-id="4" id="椭圆形" node-id="126" stroke="none"
              target-height="480" target-width="480" target-x="271.8647" target-y="293.5984"></path>
        <path d="M 900.09 794.29 L 900.09 728.78 L 921.86 728.78 L 921.86 695.00 L 900.09 695.00 L 900.09 532.60 L 864.24 532.60 L 864.24 695.00 L 814.17 695.00 L 811.17 694.80 L 808.58 694.23 L 806.34 693.32 L 804.39 692.08 L 802.14 689.84 L 800.61 687.52 L 799.72 685.09 L 799.42 682.48 L 799.58 680.07 L 800.28 674.42 L 800.28 674.42 L 821.89 532.60 L 786.39 532.60 L 762.38 686.60 L 761.99 690.03 L 761.86 693.46 L 762.07 698.11 L 762.65 702.20 L 763.57 705.82 L 764.80 709.00 L 766.32 711.81 L 769.29 715.98 L 772.42 719.47 L 775.71 722.34 L 779.17 724.66 L 782.83 726.45 L 786.71 727.73 L 790.85 728.51 L 795.31 728.78 L 795.31 728.78 L 864.24 728.78 L 864.24 794.29 L 900.09 794.29 Z"
              fill="url(#linearGradient-12)" fill-rule="nonzero" group-id="4" id="4" node-id="127" stroke="none"
              target-height="261.69348" target-width="160" target-x="761.8647" target-y="532.5984"></path>
    </g>
    <g node-id="354">
        <path d="M 515.13 464.00 L 518.51 464.55 L 521.74 465.49 L 524.83 466.85 L 527.72 468.58 L 530.37 470.66 L 532.79 473.11 L 534.74 475.62 L 536.33 478.37 L 536.37 478.46 L 536.19 477.52 L 537.10 478.05 L 537.89 479.02 L 538.55 480.60 L 539.11 483.27 L 539.34 486.74 L 539.34 486.92 L 540.35 486.86 L 541.28 487.17 L 542.18 487.89 L 543.23 489.39 L 544.00 491.45 L 544.34 493.70 L 544.17 496.03 L 543.75 497.52 L 543.04 498.84 L 542.03 500.03 L 540.78 500.94 L 539.12 501.57 L 536.93 501.89 L 536.27 503.42 L 535.60 504.56 L 532.62 509.02 L 529.22 513.53 L 527.28 515.58 L 525.17 517.35 L 525.21 529.07 L 502.04 529.40 L 502.14 515.63 L 500.37 513.99 L 498.78 512.14 L 497.37 510.05 L 495.05 506.07 L 493.19 501.89 L 493.65 501.86 L 491.00 501.77 L 489.03 501.26 L 487.57 500.41 L 486.36 499.21 L 485.52 497.83 L 485.01 496.25 L 484.80 493.75 L 485.17 491.33 L 486.04 489.15 L 487.22 487.64 L 488.21 487.00 L 489.23 486.84 L 490.37 487.14 L 490.39 485.26 L 491.08 481.44 L 492.33 477.79 L 494.11 474.38 L 496.40 471.25 L 498.95 468.76 L 501.77 466.78 L 504.87 465.28 L 508.18 464.30 L 511.59 463.87 L 515.13 464.00 Z M 536.89 481.12 L 536.90 481.48 L 537.03 482.77 L 537.45 483.99 L 536.89 481.12 Z M 536.37 478.46 L 536.89 481.12 L 536.88 480.82 L 536.67 479.21 L 536.58 478.89 L 536.37 478.46 Z"
              fill="#ebb0b0" fill-rule="nonzero" group-id="5" id="形状结合" node-id="129" stroke="none"
              target-height="65.52612" target-width="59.53711" target-x="484.80017" target-y="463.87225"></path>
        <path d="M 539.53 489.21 L 540.99 487.51 L 542.35 485.37 L 543.60 482.70 L 544.97 478.45 L 545.83 473.65 L 546.07 470.36 L 545.99 467.09 L 545.61 463.84 L 544.88 460.67 L 543.77 457.76 L 542.31 455.08 L 540.44 452.70 L 538.12 450.73 L 535.31 449.15 L 534.36 448.28 L 533.09 447.58 L 531.44 447.06 L 528.72 446.64 L 525.21 446.47 L 523.60 446.54 L 522.58 446.74 L 521.02 447.28 L 520.35 447.43 L 519.53 447.40 L 518.65 447.01 L 517.34 446.05 L 515.88 444.95 L 513.84 443.70 L 511.49 442.71 L 508.30 442.00 L 506.74 441.95 L 504.39 442.18 L 501.91 442.64 L 499.21 443.32 L 496.57 444.18 L 494.27 445.15 L 492.26 446.31 L 491.08 447.40 L 488.72 449.48 L 486.09 452.56 L 483.72 456.13 L 481.53 460.48 L 480.35 463.58 L 479.44 466.92 L 478.79 470.52 L 478.57 474.47 L 478.91 477.80 L 479.74 480.93 L 480.93 483.80 L 482.41 486.55 L 484.09 489.31 L 487.64 495.12 L 489.55 493.49 L 491.07 491.41 L 493.48 486.60 L 494.69 484.17 L 496.06 481.98 L 499.44 478.45 L 503.18 475.34 L 507.26 472.69 L 511.64 470.52 L 516.33 469.90 L 520.17 469.61 L 523.77 469.71 L 526.78 470.32 L 528.62 471.07 L 530.37 472.14 L 532.05 473.59 L 533.51 475.28 L 535.02 477.49 L 536.59 480.34 L 539.53 489.21 Z"
              fill="#131322" fill-rule="nonzero" group-id="5" id="路径" node-id="130" stroke="none"
              target-height="53.16986" target-width="67.49881" target-x="478.56894" target-y="441.9458"></path>
        <path d="M 502.57 519.63 L 506.42 522.24 L 508.47 523.57 L 510.52 524.71 L 512.64 525.52 L 514.68 525.85 L 516.26 525.60 L 518.09 524.73 L 519.87 523.52 L 521.66 522.12 L 524.79 519.63 L 529.72 520.10 L 535.89 521.21 L 542.32 522.84 L 549.53 525.20 L 556.81 528.14 L 564.43 531.86 L 569.41 534.68 L 574.37 537.85 L 579.30 541.40 L 579.18 555.15 L 578.85 566.35 L 578.28 576.79 L 577.56 585.38 L 576.62 593.47 L 575.55 600.43 L 574.30 607.12 L 572.93 613.40 L 569.80 626.21 L 566.28 640.75 L 564.64 644.07 L 560.60 651.30 L 555.20 660.53 L 549.49 669.81 L 544.50 677.20 L 542.38 679.84 L 541.28 680.79 L 537.34 682.63 L 533.62 684.07 L 530.10 685.14 L 524.73 686.25 L 519.44 686.78 L 514.11 686.84 L 508.51 686.54 L 496.49 685.26 L 495.29 684.80 L 492.86 683.30 L 487.02 678.89 L 480.50 673.51 L 474.85 668.61 L 471.63 665.66 L 470.94 664.72 L 469.60 662.35 L 466.40 655.97 L 462.80 648.25 L 459.55 640.90 L 457.39 635.65 L 454.89 628.32 L 453.65 624.07 L 452.58 619.79 L 451.77 615.58 L 451.41 612.12 L 450.83 597.10 L 450.19 579.39 L 449.64 560.85 L 449.30 543.33 L 452.38 539.31 L 455.57 535.95 L 458.86 533.18 L 462.44 530.76 L 466.07 528.74 L 469.78 527.12 L 475.52 525.19 L 481.25 523.77 L 492.45 521.74 L 497.78 520.76 L 502.57 519.63 Z"
              fill="url(#linearGradient-14)" fill-rule="nonzero" group-id="5" id="路径" node-id="131" stroke="none"
              target-height="167.21088" target-width="129.99997" target-x="449.304" target-y="519.6308"></path>
        <path d="M 497.45 532.60 L 527.45 532.60 L 529.02 532.92 L 530.28 533.77 L 531.14 535.03 L 531.45 536.60 L 531.45 584.60 L 531.14 586.17 L 530.28 587.43 L 529.02 588.28 L 527.45 588.60 L 497.45 588.60 L 495.89 588.28 L 494.63 587.43 L 493.77 586.17 L 493.45 584.60 L 493.45 536.60 L 493.77 535.03 L 494.63 533.77 L 495.89 532.92 L 497.45 532.60 Z"
              fill="url(#linearGradient-15)" fill-rule="nonzero" group-id="5" id="矩形" node-id="132" stroke="none"
              target-height="56" target-width="38" target-x="493.45447" target-y="532.5993"></path>
        <g node-id="362">
            <path d="M 481.75 582.37 L 483.89 576.73 L 486.26 571.91 L 488.84 567.82 L 491.61 564.38 L 493.52 563.40 L 494.41 563.17 L 494.95 563.36 L 495.00 563.90 L 494.67 564.62 L 493.92 565.61 L 496.23 565.02 L 497.83 564.80 L 499.75 564.82 L 501.68 565.20 L 503.70 566.13 L 504.91 567.02 L 506.11 568.31 L 507.30 570.06 L 508.22 571.96 L 509.05 574.47 L 509.77 577.73 L 508.87 580.13 L 507.42 583.00 L 505.60 585.83 L 503.31 588.67 L 500.65 591.23 L 497.59 593.39 L 495.36 594.53 L 492.97 595.35 L 490.40 595.84 L 488.04 595.50 L 486.14 594.71 L 484.60 593.48 L 483.36 591.78 L 482.43 589.47 L 481.86 586.40 L 481.75 582.37 Z"
                  fill="#efba9e" fill-rule="nonzero" group-id="5,13" id="路径-109" node-id="133" stroke="none"
                  target-height="32.667603" target-width="28.018555" target-x="481.74805" target-y="563.17365"></path>
        </g>
        <path d="M 445.40 543.87 L 448.75 540.25 L 451.84 537.72 L 454.72 536.10 L 457.44 535.21 L 460.07 534.97 L 462.69 535.35 L 465.34 536.38 L 468.11 538.16 L 471.03 540.83 L 472.33 542.54 L 473.55 545.19 L 474.66 549.10 L 475.71 555.37 L 476.40 563.58 L 476.67 572.32 L 476.59 582.28 L 476.20 592.51 L 475.53 603.23 L 474.64 613.97 L 473.57 624.44 L 472.33 634.69 L 471.03 643.93 L 468.43 646.72 L 465.92 648.80 L 463.50 650.29 L 461.13 651.26 L 458.57 651.86 L 456.12 652.04 L 453.75 651.84 L 451.43 651.25 L 448.48 649.95 L 445.79 648.18 L 443.31 645.90 L 441.18 643.27 L 439.47 640.39 L 438.16 637.24 L 435.69 625.38 L 433.98 614.35 L 432.99 604.10 L 432.65 594.58 L 432.91 585.72 L 433.74 577.47 L 435.09 569.80 L 436.95 562.64 L 439.30 555.95 L 442.11 549.71 L 445.40 543.87 Z"
              fill="url(#linearGradient-16)" fill-rule="nonzero" group-id="5" id="路径-2" node-id="134" stroke="none"
              target-height="117.069885" target-width="44.02008" target-x="432.64752" target-y="534.97424"></path>
        <path d="M 447.88 631.05 L 449.53 624.93 L 451.79 618.91 L 454.70 612.96 L 458.29 607.08 L 462.60 601.23 L 467.69 595.40 L 473.62 589.59 L 480.47 583.79 L 482.70 583.15 L 484.87 582.89 L 487.02 583.01 L 489.08 583.52 L 490.97 584.44 L 492.70 585.79 L 494.10 587.49 L 495.24 589.70 L 496.08 592.54 L 496.30 594.29 L 496.06 598.05 L 495.37 602.33 L 494.11 607.90 L 492.44 613.73 L 490.21 620.16 L 487.52 626.57 L 484.32 632.90 L 481.88 636.96 L 479.25 640.72 L 476.41 644.17 L 473.27 647.32 L 469.96 649.93 L 466.45 652.05 L 461.87 652.72 L 458.18 652.77 L 455.21 652.31 L 452.82 651.43 L 450.90 650.17 L 449.36 648.52 L 448.18 646.42 L 447.37 643.77 L 446.97 640.43 L 447.10 636.25 L 447.88 631.05 Z"
              fill="url(#linearGradient-17)" fill-rule="nonzero" group-id="5" id="路径-3" node-id="135" stroke="none"
              target-height="69.87506" target-width="49.32959" target-x="446.97455" target-y="582.8918"></path>
        <path d="M 544.93 582.37 L 542.79 576.73 L 540.41 571.91 L 537.84 567.82 L 535.07 564.38 L 533.16 563.40 L 532.26 563.17 L 531.73 563.36 L 531.68 563.90 L 532.00 564.62 L 532.76 565.61 L 530.45 565.02 L 528.84 564.80 L 526.93 564.82 L 525.00 565.20 L 522.98 566.13 L 521.76 567.02 L 520.57 568.31 L 519.38 570.06 L 518.46 571.96 L 517.62 574.47 L 516.91 577.73 L 517.81 580.13 L 519.26 583.00 L 521.07 585.83 L 523.37 588.67 L 526.03 591.23 L 529.09 593.39 L 531.32 594.53 L 533.71 595.35 L 536.28 595.84 L 538.64 595.50 L 540.54 594.71 L 542.08 593.48 L 543.31 591.78 L 544.25 589.47 L 544.82 586.40 L 544.93 582.37 Z"
              fill="#efba9e" fill-rule="nonzero" group-id="5,14" id="路径-109" node-id="136" stroke="none"
              target-height="32.667603" target-width="28.018555" target-x="516.91113" target-y="563.1736"></path>
        <path d="M 581.28 543.87 L 577.93 540.25 L 574.84 537.72 L 571.96 536.10 L 569.23 535.21 L 566.60 534.97 L 563.99 535.35 L 561.33 536.38 L 558.57 538.16 L 555.65 540.83 L 554.35 542.54 L 553.12 545.19 L 552.02 549.10 L 550.97 555.37 L 550.27 563.58 L 550.01 572.32 L 550.09 582.28 L 550.48 592.51 L 551.14 603.23 L 552.03 613.97 L 553.10 624.44 L 554.34 634.69 L 555.65 643.93 L 558.25 646.72 L 560.76 648.80 L 563.18 650.29 L 565.55 651.26 L 568.11 651.86 L 570.56 652.04 L 572.93 651.84 L 575.25 651.25 L 578.20 649.95 L 580.89 648.18 L 583.37 645.90 L 585.50 643.27 L 587.21 640.39 L 588.52 637.24 L 590.99 625.38 L 592.69 614.35 L 593.69 604.10 L 594.03 594.58 L 593.77 585.72 L 592.94 577.47 L 591.58 569.80 L 589.72 562.64 L 587.38 555.95 L 584.57 549.71 L 581.28 543.87 Z"
              fill="url(#linearGradient-18)" fill-rule="nonzero" group-id="5,15" id="路径-2" node-id="137" stroke="none"
              target-height="117.069885" target-width="44.02008" target-x="550.0102" target-y="534.97424"></path>
        <path d="M 578.79 631.05 L 577.15 624.93 L 574.89 618.91 L 571.98 612.96 L 568.39 607.08 L 564.08 601.23 L 558.99 595.40 L 553.05 589.59 L 546.21 583.79 L 543.98 583.15 L 541.80 582.89 L 539.66 583.01 L 537.59 583.52 L 535.71 584.44 L 533.97 585.79 L 532.57 587.49 L 531.44 589.70 L 530.60 592.54 L 530.37 594.29 L 530.62 598.05 L 531.31 602.33 L 532.57 607.90 L 534.23 613.73 L 536.47 620.16 L 539.15 626.57 L 542.36 632.90 L 544.79 636.96 L 547.43 640.72 L 550.27 644.17 L 553.41 647.32 L 556.72 649.93 L 560.23 652.05 L 564.80 652.72 L 568.50 652.77 L 571.47 652.31 L 573.86 651.43 L 575.78 650.17 L 577.32 648.52 L 578.50 646.42 L 579.31 643.77 L 579.70 640.43 L 579.58 636.25 L 578.79 631.05 Z"
              fill="url(#linearGradient-19)" fill-rule="nonzero" group-id="5,16" id="路径-3" node-id="138" stroke="none"
              target-height="69.87506" target-width="49.32959" target-x="530.3736" target-y="582.8918"></path>
        <path d="M 434.36 707.73 L 431.56 697.06 L 429.71 688.01 L 428.65 680.40 L 428.27 674.05 L 428.44 668.79 L 429.08 664.45 L 430.10 660.90 L 431.44 658.01 L 433.08 655.69 L 435.01 653.83 L 437.26 652.40 L 439.88 651.37 L 442.94 650.77 L 446.55 650.63 L 496.45 677.26 L 500.60 679.69 L 504.52 681.42 L 508.27 682.50 L 511.89 683.01 L 515.40 682.98 L 518.86 682.41 L 522.30 681.30 L 525.76 679.60 L 529.27 677.26 L 537.12 671.27 L 545.13 665.94 L 553.31 661.22 L 561.68 657.10 L 570.24 653.58 L 579.01 650.63 L 583.27 651.27 L 586.77 652.32 L 589.65 653.71 L 592.01 655.44 L 593.90 657.50 L 595.39 659.94 L 596.47 662.82 L 597.11 666.23 L 597.26 670.27 L 596.82 675.06 L 595.67 680.73 L 593.69 687.43 L 590.70 695.29 L 586.54 704.49 L 581.01 715.18 L 555.54 714.69 L 511.17 714.60 L 440.33 715.18 L 438.60 714.17 L 437.03 712.66 L 435.61 710.56 L 434.36 707.73 Z"
              fill="url(#linearGradient-20)" fill-rule="nonzero" group-id="5" id="路径-4" node-id="139" stroke="none"
              target-height="64.55359" target-width="168.98883" target-x="428.26935" target-y="650.63025"></path>
        <path d="M 477.79 795.99 L 482.37 795.52 L 485.73 795.19 L 487.16 795.37 L 488.54 795.93 L 489.83 797.06 L 491.17 799.03 L 492.20 801.33 L 492.89 803.83 L 493.09 805.54 L 493.01 807.03 L 492.67 808.33 L 490.28 813.72 L 487.66 819.29 L 485.87 823.06 L 484.54 825.73 L 482.07 830.18 L 478.88 835.12 L 477.10 837.40 L 475.38 839.21 L 473.56 840.59 L 471.99 841.17 L 470.31 841.08 L 468.94 840.42 L 467.77 839.15 L 466.96 837.54 L 466.39 835.43 L 466.12 832.70 L 466.20 829.96 L 466.64 826.87 L 467.49 823.40 L 470.11 815.27 L 472.93 807.33 L 475.18 801.30 L 476.10 798.91 L 477.79 795.99 Z"
              fill="#333333" fill-rule="nonzero" group-id="5,17" id="路径" node-id="140" stroke="none"
              target-height="45.97278" target-width="26.97229" target-x="466.11865" target-y="795.19495"></path>
        <path d="M 544.26 795.99 L 539.68 795.52 L 536.32 795.19 L 534.89 795.37 L 533.51 795.93 L 532.22 797.06 L 530.88 799.03 L 529.85 801.33 L 529.16 803.83 L 528.96 805.54 L 529.04 807.03 L 529.38 808.33 L 531.77 813.72 L 534.39 819.29 L 536.18 823.06 L 537.51 825.73 L 539.98 830.18 L 543.17 835.12 L 544.95 837.40 L 546.67 839.21 L 548.49 840.59 L 550.06 841.17 L 551.74 841.08 L 553.11 840.42 L 554.28 839.15 L 555.09 837.54 L 555.66 835.43 L 555.93 832.70 L 555.85 829.96 L 555.41 826.87 L 554.56 823.40 L 551.94 815.27 L 549.12 807.33 L 546.87 801.30 L 545.95 798.91 L 544.26 795.99 Z"
              fill="#333333" fill-rule="nonzero" group-id="5,18" id="路径备份-2" node-id="141" stroke="none"
              target-height="45.97278" target-width="26.972168" target-x="528.95935" target-y="795.19495"></path>
        <path d="M 420.87 681.90 L 420.52 679.53 L 420.09 673.45 L 420.14 669.61 L 420.54 665.23 L 421.38 660.82 L 422.82 656.41 L 424.14 653.61 L 425.82 651.00 L 427.88 648.57 L 430.27 646.48 L 433.18 644.70 L 436.68 643.24 L 440.92 642.12 L 444.66 641.50 L 447.98 641.34 L 450.93 641.56 L 454.85 642.44 L 458.31 643.82 L 461.36 645.69 L 464.14 647.99 L 466.67 650.56 L 468.95 653.43 L 472.00 657.99 L 474.68 662.57 L 479.55 690.89 L 496.46 793.33 L 493.04 796.11 L 489.40 798.31 L 485.49 799.97 L 481.29 801.10 L 476.73 801.69 L 471.77 801.70 L 466.34 801.09 L 462.95 791.20 L 457.12 775.46 L 449.75 756.08 L 441.73 735.27 L 433.94 715.24 L 427.27 698.19 L 422.62 686.34 L 420.87 681.90 Z"
              fill="url(#linearGradient-21)" fill-rule="nonzero" group-id="5" id="路径-5" node-id="142" stroke="none"
              target-height="160.36487" target-width="76.368866" target-x="420.0869" target-y="641.33655"></path>
        <path d="M 600.66 681.90 L 601.01 679.53 L 601.44 673.45 L 601.39 669.61 L 601.00 665.23 L 600.15 660.82 L 598.72 656.41 L 597.40 653.61 L 595.71 651.00 L 593.65 648.57 L 591.26 646.48 L 588.35 644.70 L 584.85 643.24 L 580.61 642.12 L 576.87 641.50 L 573.55 641.34 L 570.60 641.56 L 566.68 642.44 L 563.22 643.82 L 560.17 645.69 L 557.39 647.99 L 554.86 650.56 L 552.58 653.43 L 549.53 657.99 L 546.85 662.57 L 541.98 690.89 L 525.07 793.33 L 528.49 796.11 L 532.13 798.31 L 536.04 799.97 L 540.24 801.10 L 544.80 801.69 L 549.76 801.70 L 555.19 801.09 L 558.58 791.20 L 564.41 775.46 L 571.78 756.08 L 579.80 735.27 L 587.59 715.24 L 594.26 698.19 L 598.91 686.34 L 600.66 681.90 Z"
              fill="url(#linearGradient-21)" fill-rule="nonzero" group-id="5,19" id="路径-5备份" node-id="143"
              stroke="none" target-height="160.36487" target-width="76.3689" target-x="525.0748"
              target-y="641.33655"></path>
    </g>
    <g node-id="355">
        <path d="M 918.40 787.52 L 918.95 781.38 L 918.93 776.07 L 918.44 771.49 L 917.51 767.55 L 916.21 764.15 L 914.55 761.23 L 912.54 758.73 L 910.16 756.60 L 907.38 754.81 L 904.14 753.38 L 900.38 752.30 L 896.00 751.63 L 900.95 751.41 L 905.50 751.63 L 909.69 752.27 L 913.56 753.29 L 917.14 754.69 L 920.61 756.53 L 923.72 758.70 L 926.51 761.19 L 928.98 764.04 L 931.16 767.26 L 932.93 770.65 L 934.34 774.33 L 935.40 778.35 L 936.09 782.73 L 936.38 787.52 L 928.50 787.65 L 918.40 787.52 Z"
              fill="url(#linearGradient-22)" fill-rule="nonzero" group-id="6" id="路径-38" node-id="145" stroke="none"
              target-height="36.23767" target-width="40.382324" target-x="896" target-y="751.40936"></path>
        <path d="M 930.12 787.65 L 931.21 781.17 L 931.68 775.22 L 931.58 769.76 L 930.96 764.72 L 929.84 760.06 L 928.24 755.73 L 926.18 751.69 L 923.62 747.92 L 920.56 744.39 L 916.95 741.08 L 912.73 738.00 L 917.89 739.74 L 922.70 741.69 L 927.18 743.86 L 931.44 746.39 L 935.38 749.38 L 939.04 752.83 L 941.47 755.66 L 943.76 758.90 L 945.90 762.60 L 947.90 766.80 L 949.51 771.00 L 950.97 775.83 L 952.27 781.35 L 953.37 787.65 L 947.00 787.95 L 939.31 787.97 L 930.12 787.65 Z"
              fill="url(#linearGradient-23)" fill-rule="nonzero" group-id="6" id="路径-39" node-id="146" stroke="none"
              target-height="49.96985" target-width="40.642517" target-x="912.73065" target-y="738"></path>
        <path d="M 957.07 788.00 L 956.73 781.72 L 956.99 776.27 L 957.76 771.55 L 958.98 767.46 L 960.63 763.91 L 962.67 760.84 L 965.13 758.18 L 968.03 755.92 L 971.43 754.02 L 975.39 752.50 L 980.00 751.39 L 975.13 751.29 L 970.16 751.39 L 966.86 751.67 L 963.55 752.24 L 960.22 753.13 L 957.02 754.38 L 953.78 756.16 L 950.49 758.54 L 947.52 761.30 L 944.47 764.91 L 941.33 769.53 L 938.63 774.39 L 935.86 780.48 L 933.05 788.00 L 948.31 787.74 L 957.07 788.00 Z"
              fill="none" group-id="6" id="路径-40" node-id="147" stroke="none" target-height="36.707947"
              target-width="46.94806" target-x="933.05194" target-y="751.29205"></path>
        <path d="M 907.41 802.00 L 913.64 801.98 L 919.14 801.82 L 922.72 801.51 L 925.83 800.97 L 928.52 800.23 L 931.03 799.11 L 933.09 797.60 L 934.75 795.68 L 935.66 794.05 L 936.36 792.05 L 936.82 789.60 L 937.00 786.61 L 936.71 782.68 L 935.91 778.99 L 934.60 775.47 L 932.83 772.16 L 930.66 769.14 L 928.07 766.38 L 925.15 763.97 L 921.92 761.92 L 918.37 760.25 L 914.64 759.03 L 910.70 758.27 L 906.50 758.00 L 902.30 758.27 L 898.36 759.03 L 894.63 760.25 L 891.08 761.92 L 887.85 763.97 L 884.93 766.38 L 882.34 769.14 L 880.17 772.16 L 878.40 775.47 L 877.09 778.99 L 876.29 782.68 L 876.00 786.61 L 876.20 789.58 L 876.72 792.02 L 877.51 794.03 L 878.54 795.68 L 880.37 797.58 L 882.63 799.10 L 885.39 800.23 L 888.32 800.98 L 891.64 801.51 L 895.40 801.82 L 901.13 801.98 L 907.41 802.00 Z"
              fill="url(#linearGradient-25)" fill-rule="nonzero" group-id="6" id="椭圆形" node-id="148" stroke="none"
              target-height="43.999023" target-width="61" target-x="876" target-y="758"></path>
        <path d="M 940.57 802.00 L 947.88 801.89 L 951.11 801.55 L 953.72 800.91 L 955.28 800.22 L 956.56 799.30 L 957.60 798.12 L 958.32 796.74 L 958.81 794.92 L 959.00 792.56 L 958.68 789.36 L 957.82 786.43 L 956.41 783.69 L 954.53 781.25 L 952.27 779.15 L 949.59 777.40 L 946.66 776.10 L 943.48 775.30 L 940.00 775.00 L 936.52 775.30 L 933.34 776.10 L 930.41 777.40 L 927.73 779.15 L 925.47 781.25 L 923.59 783.69 L 922.18 786.43 L 921.32 789.36 L 921.00 792.56 L 921.21 794.91 L 921.76 796.73 L 922.58 798.12 L 923.72 799.29 L 925.13 800.22 L 926.85 800.91 L 929.68 801.55 L 933.08 801.89 L 940.57 802.00 Z"
              fill="url(#linearGradient-26)" fill-rule="nonzero" group-id="6" id="椭圆形备份-6" node-id="149"
              stroke="none" target-height="26.99939" target-width="38" target-x="921" target-y="775"></path>
    </g>
    <g node-id="356">
        <path d="M 246.97 791.34 L 245.86 787.71 L 244.25 784.52 L 242.13 781.72 L 239.48 779.26 L 236.22 777.12 L 232.26 775.32 L 227.81 773.71 L 224.62 772.20 L 222.76 770.99 L 221.73 769.96 L 221.28 769.06 L 221.31 768.17 L 221.99 767.26 L 223.70 766.22 L 227.24 765.81 L 229.34 765.75 L 231.73 766.03 L 234.12 766.78 L 236.77 768.30 L 238.39 769.65 L 240.13 771.54 L 241.98 774.09 L 243.57 776.80 L 245.23 780.32 L 246.97 784.82 L 247.33 787.03 L 247.33 789.20 L 246.97 791.34 Z"
              fill="url(#linearGradient-27)" fill-rule="nonzero" group-id="7" id="路径-43" node-id="151" stroke="none"
              target-height="25.592773" target-width="26.05774" target-x="221.27556" target-y="765.74927"></path>
        <path d="M 247.38 792.55 L 244.54 782.74 L 241.70 774.39 L 238.89 767.34 L 236.12 761.45 L 233.39 756.58 L 230.72 752.60 L 229.36 750.55 L 228.38 748.48 L 227.75 746.36 L 227.44 744.17 L 227.48 742.21 L 227.82 740.44 L 228.51 738.82 L 229.47 737.63 L 230.72 736.79 L 232.08 736.68 L 233.72 736.73 L 235.40 737.14 L 237.33 738.16 L 238.51 739.13 L 239.82 740.58 L 241.28 742.65 L 243.17 746.23 L 245.29 751.74 L 247.14 758.10 L 249.10 767.00 L 249.62 770.36 L 250.19 776.24 L 250.31 779.67 L 250.22 783.25 L 249.83 786.79 L 249.10 789.98 L 248.37 791.50 L 247.38 792.55 Z"
              fill="url(#linearGradient-28)" fill-rule="nonzero" group-id="7" id="路径-44" node-id="152" stroke="none"
              target-height="55.878845" target-width="22.863922" target-x="227.44217" target-y="736.6753"></path>
        <path d="M 248.51 788.43 L 249.46 783.75 L 249.94 778.32 L 249.86 772.05 L 249.14 764.81 L 247.66 756.48 L 244.95 748.63 L 243.66 744.66 L 242.64 740.96 L 241.97 737.35 L 241.86 734.33 L 242.14 732.44 L 242.77 730.89 L 243.73 729.62 L 245.01 728.69 L 246.83 728.03 L 249.38 727.71 L 251.36 728.23 L 253.44 729.45 L 254.64 730.59 L 255.82 732.28 L 256.99 734.65 L 257.82 737.15 L 258.53 740.52 L 259.07 744.96 L 259.28 749.40 L 259.19 755.01 L 258.75 762.01 L 257.89 767.43 L 256.93 771.99 L 255.80 776.32 L 254.60 780.32 L 251.96 788.43 L 250.99 788.78 L 249.87 788.80 L 248.51 788.43 Z"
              fill="url(#linearGradient-29)" fill-rule="nonzero" group-id="7" id="路径-45" node-id="153" stroke="none"
              target-height="61.082825" target-width="17.420013" target-x="241.85596" target-y="727.7134"></path>
        <path d="M 251.09 791.60 L 251.00 783.13 L 251.38 775.57 L 252.18 768.84 L 253.35 762.86 L 254.85 757.57 L 256.67 752.88 L 258.76 748.74 L 261.13 745.10 L 263.76 741.91 L 264.95 740.72 L 266.72 739.64 L 268.71 738.93 L 270.76 738.71 L 272.08 738.91 L 273.25 739.46 L 274.32 740.39 L 275.07 741.58 L 275.60 743.36 L 275.84 745.93 L 275.26 748.39 L 274.12 752.17 L 272.47 756.29 L 269.62 761.81 L 267.36 765.51 L 264.31 769.83 L 260.34 774.86 L 258.43 777.68 L 256.78 780.69 L 255.40 783.73 L 254.43 786.28 L 253.75 788.62 L 253.57 789.78 L 253.30 790.76 L 252.55 791.36 L 251.09 791.60 Z"
              fill="url(#linearGradient-30)" fill-rule="nonzero" group-id="7" id="路径-46" node-id="154" stroke="none"
              target-height="52.89087" target-width="24.836945" target-x="250.99863" target-y="738.7132"></path>
        <path d="M 203.06 794.65 L 210.95 793.01 L 215.37 791.78 L 217.52 790.89 L 218.35 790.26 L 219.20 789.49 L 221.27 788.11 L 223.73 786.84 L 226.87 785.63 L 230.21 784.86 L 233.68 784.71 L 235.94 785.06 L 238.10 785.89 L 240.20 787.24 L 241.29 786.24 L 242.94 785.40 L 244.81 784.96 L 246.83 785.02 L 248.12 785.39 L 249.34 786.12 L 250.52 787.24 L 251.37 785.05 L 252.80 783.07 L 254.63 781.37 L 256.73 779.96 L 258.97 778.85 L 261.11 778.12 L 263.20 777.74 L 264.78 777.78 L 266.64 777.70 L 269.35 777.87 L 272.17 778.44 L 275.20 779.68 L 277.05 780.88 L 278.79 782.55 L 280.41 784.76 L 281.61 787.23 L 282.52 790.46 L 283.06 794.65 L 270.53 794.71 L 203.06 794.65 Z"
              fill="url(#linearGradient-31)" fill-rule="nonzero" group-id="7" id="路径-47" node-id="155" stroke="none"
              target-height="17.008057" target-width="80" target-x="203.06012" target-y="777.70026"></path>
    </g>
</svg>