
<svg width="200px" height="200px" viewBox="0 -26 200 200" version="1.1" xmlns="http://www.w3.org/2000/svg" xmlns:xlink="http://www.w3.org/1999/xlink">
    <defs>
        <linearGradient x1="0%" y1="100%" x2="100%" y2="0%" id="linearGradient-1">
            <stop stop-color="#DF9F38" offset="0%"></stop>
            <stop stop-color="#FDD15A" offset="100%"></stop>
        </linearGradient>
        <linearGradient x1="99.9965513%" y1="100%" x2="0.00344870918%" y2="0%" id="linearGradient-2">
            <stop stop-color="#0C68FF" offset="0%"></stop>
            <stop stop-color="#29CBFF" offset="100%"></stop>
        </linearGradient>
        <radialGradient cx="50%" cy="0%" fx="50%" fy="0%" r="214.072088%" gradientTransform="translate(0.500000,0.000000),scale(1.000000,0.467132),rotate(90.000000),translate(-0.500000,-0.000000)" id="radialGradient-3">
            <stop stop-color="#F9696C" offset="0%"></stop>
            <stop stop-color="#F52C3A" offset="100%"></stop>
        </radialGradient>
    </defs>
    <g id="页面-1" stroke="none" stroke-width="1" fill="none" fill-rule="evenodd">
        <g id="编组" transform="translate(0.000000, 0.728285)" fill-rule="nonzero">
            <path d="M99.9982756,146.543429 L104.871446,113.107206 C109.203152,83.368109 136.82468,55.7500303 166.560328,51.4183236 L199.996551,46.5451537 L195.123381,79.9813766 C190.791675,109.720474 163.170147,137.338553 133.434498,141.670259 L99.9982756,146.543429 Z" id="路径" fill="url(#linearGradient-1)" style="mix-blend-mode: overlay;"></path>
            <path d="M99.9982756,146.543429 L66.5620527,141.670259 C36.8229553,137.338553 9.20487656,109.717025 4.87316992,79.9813766 L0,46.5417049 L33.4362229,51.4148748 C63.1753203,55.7465814 90.793399,83.368109 95.1251057,113.103758 L99.9982756,146.543429 Z" id="路径" fill="url(#linearGradient-2)"></path>
            <path d="M99.9982756,143.17739 L99.3912848,142.356573 L99.736166,144.739701 L99.9913779,144.850063 L99.9982756,144.781087 L100.008622,144.850063 L100.263834,144.739701 L100.608715,142.356573 L99.9982756,143.17739 Z M72.1456777,42.5134936 C68.46199,39.8290944 64.4951617,37.5565528 60.3162561,35.7365799 L28.4009588,20.8549604 L25.8246969,50.3043576 L33.4362229,51.4148748 C45.2656447,53.1392803 56.7329412,58.5884018 66.5586039,66.3482266 C67.1438073,58.1570887 69.0297849,50.1114153 72.1456777,42.5134936 L72.1456777,42.5134936 Z" id="形状" fill="#17A15F"></path>
            <path d="M171.595592,20.8549604 L139.680295,35.7365799 C135.50206,37.5578878 131.535374,39.8303482 127.850873,42.5134936 C130.968395,50.1108941 132.854434,58.156832 133.437947,66.3482266 C143.26361,58.5884018 154.730906,53.1358314 166.560328,51.4148748 L174.171854,50.3043576 L171.595592,20.8549604 L171.595592,20.8549604 Z" id="路径" fill="#894B9D"></path>
            <path d="M95.1285545,113.107206 L99.3912848,142.360021 L100.001724,143.17739 L100.612164,142.360021 L104.874894,113.107206 C107.485644,95.2009797 118.566674,78.1017746 133.441396,66.3516754 C132.430895,52.6598957 128.019865,39.3336898 120.201411,28.8458555 L99.9982756,0 L79.7985895,28.8458555 C71.9766861,39.3336898 67.5691057,52.6598955 66.5586039,66.3516754 C81.4367746,78.0983258 92.5178045,95.1975309 95.1285545,113.107206 Z" id="路径" fill="url(#radialGradient-3)"></path>
        </g>
    </g>
</svg>